<?xml version="1.0" encoding="UTF-8" standalone="no"?><svg xmlns="http://www.w3.org/2000/svg" xmlns:xlink="http://www.w3.org/1999/xlink" clip-rule="evenodd" stroke-miterlimit="10" viewBox="0 0 960 540"><desc>SVG generated by Keynote</desc><defs><linearGradient id="gradSh1.27" x1="0.0" y1="0.0" x2="100.0" y2="0.0" gradientUnits="userSpaceOnUse" gradientTransform="matrix(0.00, -2.00, -1.45, 0.00, 767.0, 331.5)"><stop offset="0.00000" stop-color="#5F82CB"></stop><stop offset="0.01320" stop-color="#5E82CB"></stop><stop offset="0.07405" stop-color="#5A7FCB"></stop><stop offset="0.08724" stop-color="#597FCB"></stop><stop offset="1.00000" stop-color="#2F61BA"></stop></linearGradient></defs><g transform="matrix(1.00, 0.00, -0.00, -1.00, 0.0, 540.0)"><path d="M 0.0 540.0 L 960.0 540.0 L 960.0 0.0 L 0.0 0.0 Z M 0.0 540.0 " fill="#FFFFFF"></path><g><clipPath id="clip0x6000034bdf40"><path d="M 475.0 541.0 L 949.0 541.0 L 949.0 472.0 L 475.0 472.0 Z M 475.3 540.6 "></path></clipPath><g clip-path="url(#clip0x6000034bdf40)"><image xlink:href="../../12E296EB-324A-4E36-A627-C1FD5B354ABA/assets/7B0009C886B1E82F6EBAFFAEAD82C4AE.png" width="2337.00" height="797.00" transform="matrix(0.23, 0.00, -0.00, -0.23, 411.0, 655.0)"></image></g></g><image xlink:href="../../12E296EB-324A-4E36-A627-C1FD5B354ABA/assets/A6E89C778DEB5F4EAED58596AE4BA2F9.png" width="1000.00" height="400.00" transform="matrix(0.09, 0.00, -0.00, -0.09, 27.0, 43.0)"></image><image xlink:href="../../12E296EB-324A-4E36-A627-C1FD5B354ABA/assets/D7046E32D604CD756C973E818C68C492.png" width="1000.00" height="400.00" transform="matrix(0.07, 0.00, -0.00, -0.07, 851.0, 43.0)"></image><text xml:space="preserve" font-family="Arial-BoldMT,Arial" font-weight="bold" font-size="24.0" fill="#5A5D5E" transform="matrix(1.00, 0.00, -0.00, -1.00, 53.4, 491.3)">H</text><text xml:space="preserve" font-family="Arial-BoldMT,Arial" font-weight="bold" font-size="24.0" fill="#5A5D5E" transform="matrix(1.00, 0.00, -0.00, -1.00, 70.7, 491.3)">T</text><text xml:space="preserve" font-family="Arial-BoldMT,Arial" font-weight="bold" font-size="24.0" fill="#5A5D5E" transform="matrix(1.00, 0.00, -0.00, -1.00, 85.4, 491.3)">T</text><text xml:space="preserve" font-family="Arial-BoldMT,Arial" font-weight="bold" font-size="24.0" fill="#5A5D5E" transform="matrix(1.00, 0.00, -0.00, -1.00, 100.0, 491.3)">P</text><text xml:space="preserve" font-family="Arial-BoldMT,Arial" font-weight="bold" font-size="24.0" fill="#5A5D5E" transform="matrix(1.00, 0.00, -0.00, -1.00, 115.6, 491.3)"> </text><text xml:space="preserve" font-family="Arial-BoldMT,Arial" font-weight="bold" font-size="24.0" fill="#5A5D5E" transform="matrix(1.00, 0.00, -0.00, -1.00, 122.3, 491.3)">S</text><text xml:space="preserve" font-family="Arial-BoldMT,Arial" font-weight="bold" font-size="24.0" fill="#5A5D5E" transform="matrix(1.00, 0.00, -0.00, -1.00, 138.3, 491.3)">t</text><text xml:space="preserve" font-family="Arial-BoldMT,Arial" font-weight="bold" font-size="24.0" fill="#5A5D5E" transform="matrix(1.00, 0.00, -0.00, -1.00, 146.3, 491.3)">a</text><text xml:space="preserve" font-family="Arial-BoldMT,Arial" font-weight="bold" font-size="24.0" fill="#5A5D5E" transform="matrix(1.00, 0.00, -0.00, -1.00, 159.6, 491.3)">t</text><text xml:space="preserve" font-family="Arial-BoldMT,Arial" font-weight="bold" font-size="24.0" fill="#5A5D5E" transform="matrix(1.00, 0.00, -0.00, -1.00, 167.6, 491.3)">u</text><text xml:space="preserve" font-family="Arial-BoldMT,Arial" font-weight="bold" font-size="24.0" fill="#5A5D5E" transform="matrix(1.00, 0.00, -0.00, -1.00, 182.3, 491.3)">s</text><text xml:space="preserve" font-family="Arial-BoldMT,Arial" font-weight="bold" font-size="24.0" fill="#5A5D5E" transform="matrix(1.00, 0.00, -0.00, -1.00, 195.6, 491.3)"> </text><text xml:space="preserve" font-family="Arial-BoldMT,Arial" font-weight="bold" font-size="24.0" fill="#5A5D5E" transform="matrix(1.00, 0.00, -0.00, -1.00, 202.3, 491.3)">C</text><text xml:space="preserve" font-family="Arial-BoldMT,Arial" font-weight="bold" font-size="24.0" fill="#5A5D5E" transform="matrix(1.00, 0.00, -0.00, -1.00, 219.6, 491.3)">o</text><text xml:space="preserve" font-family="Arial-BoldMT,Arial" font-weight="bold" font-size="24.0" fill="#5A5D5E" transform="matrix(1.00, 0.00, -0.00, -1.00, 234.3, 491.3)">d</text><text xml:space="preserve" font-family="Arial-BoldMT,Arial" font-weight="bold" font-size="24.0" fill="#5A5D5E" transform="matrix(1.00, 0.00, -0.00, -1.00, 248.9, 491.3)">e</text><text xml:space="preserve" font-family="Arial-BoldMT,Arial" font-weight="bold" font-size="24.0" fill="#5A5D5E" transform="matrix(1.00, 0.00, -0.00, -1.00, 262.3, 491.3)">s</text><text xml:space="preserve" font-family="ArialMT,Arial" font-size="14.0" fill="#5A5D5E" transform="matrix(1.00, 0.00, -0.00, -1.00, 53.4, 411.0)">•</text><text xml:space="preserve" font-family="ArialMT,Arial" font-size="14.0" fill="#5A5D5E" transform="matrix(1.00, 0.00, -0.00, -1.00, 71.4, 411.0)">C</text><text xml:space="preserve" font-family="ArialMT,Arial" font-size="14.0" fill="#5A5D5E" transform="matrix(1.00, 0.00, -0.00, -1.00, 81.5, 411.0)">o</text><text xml:space="preserve" font-family="ArialMT,Arial" font-size="14.0" fill="#5A5D5E" transform="matrix(1.00, 0.00, -0.00, -1.00, 89.3, 411.0)">n</text><text xml:space="preserve" font-family="ArialMT,Arial" font-size="14.0" fill="#5A5D5E" transform="matrix(1.00, 0.00, -0.00, -1.00, 97.0, 411.0)">s</text><text xml:space="preserve" font-family="ArialMT,Arial" font-size="14.0" fill="#5A5D5E" transform="matrix(1.00, 0.00, -0.00, -1.00, 104.0, 411.0)">i</text><text xml:space="preserve" font-family="ArialMT,Arial" font-size="14.0" fill="#5A5D5E" transform="matrix(1.00, 0.00, -0.00, -1.00, 107.2, 411.0)">d</text><text xml:space="preserve" font-family="ArialMT,Arial" font-size="14.0" fill="#5A5D5E" transform="matrix(1.00, 0.00, -0.00, -1.00, 114.9, 411.0)">e</text><text xml:space="preserve" font-family="ArialMT,Arial" font-size="14.0" fill="#5A5D5E" transform="matrix(1.00, 0.00, -0.00, -1.00, 122.7, 411.0)">r</text><text xml:space="preserve" font-family="ArialMT,Arial" font-size="14.0" fill="#5A5D5E" transform="matrix(1.00, 0.00, -0.00, -1.00, 127.4, 411.0)"> </text><text xml:space="preserve" font-family="ArialMT,Arial" font-size="14.0" fill="#5A5D5E" transform="matrix(1.00, 0.00, -0.00, -1.00, 131.3, 411.0)">y</text><text xml:space="preserve" font-family="ArialMT,Arial" font-size="14.0" fill="#5A5D5E" transform="matrix(1.00, 0.00, -0.00, -1.00, 138.3, 411.0)">o</text><text xml:space="preserve" font-family="ArialMT,Arial" font-size="14.0" fill="#5A5D5E" transform="matrix(1.00, 0.00, -0.00, -1.00, 146.1, 411.0)">u</text><text xml:space="preserve" font-family="ArialMT,Arial" font-size="14.0" fill="#5A5D5E" transform="matrix(1.00, 0.00, -0.00, -1.00, 153.9, 411.0)">r</text><text xml:space="preserve" font-family="ArialMT,Arial" font-size="14.0" fill="#5A5D5E" transform="matrix(1.00, 0.00, -0.00, -1.00, 158.5, 411.0)"> </text><text xml:space="preserve" font-family="ArialMT,Arial" font-size="14.0" fill="#5A5D5E" transform="matrix(1.00, 0.00, -0.00, -1.00, 162.4, 411.0)">s</text><text xml:space="preserve" font-family="ArialMT,Arial" font-size="14.0" fill="#5A5D5E" transform="matrix(1.00, 0.00, -0.00, -1.00, 169.4, 411.0)">t</text><text xml:space="preserve" font-family="ArialMT,Arial" font-size="14.0" fill="#5A5D5E" transform="matrix(1.00, 0.00, -0.00, -1.00, 173.3, 411.0)">a</text><text xml:space="preserve" font-family="ArialMT,Arial" font-size="14.0" fill="#5A5D5E" transform="matrix(1.00, 0.00, -0.00, -1.00, 181.1, 411.0)">t</text><text xml:space="preserve" font-family="ArialMT,Arial" font-size="14.0" fill="#5A5D5E" transform="matrix(1.00, 0.00, -0.00, -1.00, 185.0, 411.0)">u</text><text xml:space="preserve" font-family="ArialMT,Arial" font-size="14.0" fill="#5A5D5E" transform="matrix(1.00, 0.00, -0.00, -1.00, 192.8, 411.0)">s</text><text xml:space="preserve" font-family="ArialMT,Arial" font-size="14.0" fill="#5A5D5E" transform="matrix(1.00, 0.00, -0.00, -1.00, 199.8, 411.0)"> </text><text xml:space="preserve" font-family="ArialMT,Arial" font-size="14.0" fill="#5A5D5E" transform="matrix(1.00, 0.00, -0.00, -1.00, 203.6, 411.0)">c</text><text xml:space="preserve" font-family="ArialMT,Arial" font-size="14.0" fill="#5A5D5E" transform="matrix(1.00, 0.00, -0.00, -1.00, 210.6, 411.0)">o</text><text xml:space="preserve" font-family="ArialMT,Arial" font-size="14.0" fill="#5A5D5E" transform="matrix(1.00, 0.00, -0.00, -1.00, 218.4, 411.0)">d</text><text xml:space="preserve" font-family="ArialMT,Arial" font-size="14.0" fill="#5A5D5E" transform="matrix(1.00, 0.00, -0.00, -1.00, 226.2, 411.0)">e</text><text xml:space="preserve" font-family="ArialMT,Arial" font-size="14.0" fill="#5A5D5E" transform="matrix(1.00, 0.00, -0.00, -1.00, 234.0, 411.0)">s</text><text xml:space="preserve" font-family="ArialMT,Arial" font-size="14.0" fill="#5A5D5E" transform="matrix(1.00, 0.00, -0.00, -1.00, 241.0, 411.0)"> </text><text xml:space="preserve" font-family="ArialMT,Arial" font-size="14.0" fill="#5A5D5E" transform="matrix(1.00, 0.00, -0.00, -1.00, 244.9, 411.0)">a</text><text xml:space="preserve" font-family="ArialMT,Arial" font-size="14.0" fill="#5A5D5E" transform="matrix(1.00, 0.00, -0.00, -1.00, 252.7, 411.0)">n</text><text xml:space="preserve" font-family="ArialMT,Arial" font-size="14.0" fill="#5A5D5E" transform="matrix(1.00, 0.00, -0.00, -1.00, 260.5, 411.0)">d</text><text xml:space="preserve" font-family="ArialMT,Arial" font-size="14.0" fill="#5A5D5E" transform="matrix(1.00, 0.00, -0.00, -1.00, 268.3, 411.0)"> </text><text xml:space="preserve" font-family="ArialMT,Arial" font-size="14.0" fill="#5A5D5E" transform="matrix(1.00, 0.00, -0.00, -1.00, 272.2, 411.0)">e</text><text xml:space="preserve" font-family="ArialMT,Arial" font-size="14.0" fill="#5A5D5E" transform="matrix(1.00, 0.00, -0.00, -1.00, 279.9, 411.0)">r</text><text xml:space="preserve" font-family="ArialMT,Arial" font-size="14.0" fill="#5A5D5E" transform="matrix(1.00, 0.00, -0.00, -1.00, 284.6, 411.0)">r</text><text xml:space="preserve" font-family="ArialMT,Arial" font-size="14.0" fill="#5A5D5E" transform="matrix(1.00, 0.00, -0.00, -1.00, 289.3, 411.0)">o</text><text xml:space="preserve" font-family="ArialMT,Arial" font-size="14.0" fill="#5A5D5E" transform="matrix(1.00, 0.00, -0.00, -1.00, 297.1, 411.0)">r</text><text xml:space="preserve" font-family="ArialMT,Arial" font-size="14.0" fill="#5A5D5E" transform="matrix(1.00, 0.00, -0.00, -1.00, 301.7, 411.0)"> </text><text xml:space="preserve" font-family="ArialMT,Arial" font-size="14.0" fill="#5A5D5E" transform="matrix(1.00, 0.00, -0.00, -1.00, 305.6, 411.0)">m</text><text xml:space="preserve" font-family="ArialMT,Arial" font-size="14.0" fill="#5A5D5E" transform="matrix(1.00, 0.00, -0.00, -1.00, 317.3, 411.0)">e</text><text xml:space="preserve" font-family="ArialMT,Arial" font-size="14.0" fill="#5A5D5E" transform="matrix(1.00, 0.00, -0.00, -1.00, 325.1, 411.0)">s</text><text xml:space="preserve" font-family="ArialMT,Arial" font-size="14.0" fill="#5A5D5E" transform="matrix(1.00, 0.00, -0.00, -1.00, 332.1, 411.0)">s</text><text xml:space="preserve" font-family="ArialMT,Arial" font-size="14.0" fill="#5A5D5E" transform="matrix(1.00, 0.00, -0.00, -1.00, 339.1, 411.0)">a</text><text xml:space="preserve" font-family="ArialMT,Arial" font-size="14.0" fill="#5A5D5E" transform="matrix(1.00, 0.00, -0.00, -1.00, 346.8, 411.0)">g</text><text xml:space="preserve" font-family="ArialMT,Arial" font-size="14.0" fill="#5A5D5E" transform="matrix(1.00, 0.00, -0.00, -1.00, 354.6, 411.0)">e</text><text xml:space="preserve" font-family="ArialMT,Arial" font-size="14.0" fill="#5A5D5E" transform="matrix(1.00, 0.00, -0.00, -1.00, 362.4, 411.0)">s</text><text xml:space="preserve" font-family="ArialMT,Arial" font-size="14.0" fill="#5A5D5E" transform="matrix(1.00, 0.00, -0.00, -1.00, 369.4, 411.0)"> </text><text xml:space="preserve" font-family="ArialMT,Arial" font-size="14.0" fill="#5A5D5E" transform="matrix(1.00, 0.00, -0.00, -1.00, 373.3, 411.0)">a</text><text xml:space="preserve" font-family="ArialMT,Arial" font-size="14.0" fill="#5A5D5E" transform="matrix(1.00, 0.00, -0.00, -1.00, 381.1, 411.0)">s</text><text xml:space="preserve" font-family="ArialMT,Arial" font-size="14.0" fill="#5A5D5E" transform="matrix(1.00, 0.00, -0.00, -1.00, 388.1, 411.0)"> </text><text xml:space="preserve" font-family="ArialMT,Arial" font-size="14.0" fill="#5A5D5E" transform="matrix(1.00, 0.00, -0.00, -1.00, 392.0, 411.0)">d</text><text xml:space="preserve" font-family="ArialMT,Arial" font-size="14.0" fill="#5A5D5E" transform="matrix(1.00, 0.00, -0.00, -1.00, 399.8, 411.0)">o</text><text xml:space="preserve" font-family="ArialMT,Arial" font-size="14.0" fill="#5A5D5E" transform="matrix(1.00, 0.00, -0.00, -1.00, 407.6, 411.0)">c</text><text xml:space="preserve" font-family="ArialMT,Arial" font-size="14.0" fill="#5A5D5E" transform="matrix(1.00, 0.00, -0.00, -1.00, 414.6, 411.0)">u</text><text xml:space="preserve" font-family="ArialMT,Arial" font-size="14.0" fill="#5A5D5E" transform="matrix(1.00, 0.00, -0.00, -1.00, 422.4, 411.0)">m</text><text xml:space="preserve" font-family="ArialMT,Arial" font-size="14.0" fill="#5A5D5E" transform="matrix(1.00, 0.00, -0.00, -1.00, 434.0, 411.0)">e</text><text xml:space="preserve" font-family="ArialMT,Arial" font-size="14.0" fill="#5A5D5E" transform="matrix(1.00, 0.00, -0.00, -1.00, 441.8, 411.0)">n</text><text xml:space="preserve" font-family="ArialMT,Arial" font-size="14.0" fill="#5A5D5E" transform="matrix(1.00, 0.00, -0.00, -1.00, 449.6, 411.0)">t</text><text xml:space="preserve" font-family="ArialMT,Arial" font-size="14.0" fill="#5A5D5E" transform="matrix(1.00, 0.00, -0.00, -1.00, 453.5, 411.0)">a</text><text xml:space="preserve" font-family="ArialMT,Arial" font-size="14.0" fill="#5A5D5E" transform="matrix(1.00, 0.00, -0.00, -1.00, 461.3, 411.0)">t</text><text xml:space="preserve" font-family="ArialMT,Arial" font-size="14.0" fill="#5A5D5E" transform="matrix(1.00, 0.00, -0.00, -1.00, 465.2, 411.0)">i</text><text xml:space="preserve" font-family="ArialMT,Arial" font-size="14.0" fill="#5A5D5E" transform="matrix(1.00, 0.00, -0.00, -1.00, 468.3, 411.0)">o</text><text xml:space="preserve" font-family="ArialMT,Arial" font-size="14.0" fill="#5A5D5E" transform="matrix(1.00, 0.00, -0.00, -1.00, 476.1, 411.0)">n</text><text xml:space="preserve" font-family="ArialMT,Arial" font-size="14.0" fill="#5A5D5E" transform="matrix(1.00, 0.00, -0.00, -1.00, 483.8, 411.0)"> </text><text xml:space="preserve" font-family="ArialMT,Arial" font-size="14.0" fill="#5A5D5E" transform="matrix(1.00, 0.00, -0.00, -1.00, 53.4, 386.5)">•</text><text xml:space="preserve" font-family="ArialMT,Arial" font-size="14.0" fill="#5A5D5E" transform="matrix(1.00, 0.00, -0.00, -1.00, 71.4, 386.5)">R</text><text xml:space="preserve" font-family="ArialMT,Arial" font-size="14.0" fill="#5A5D5E" transform="matrix(1.00, 0.00, -0.00, -1.00, 81.5, 386.5)">e</text><text xml:space="preserve" font-family="ArialMT,Arial" font-size="14.0" fill="#5A5D5E" transform="matrix(1.00, 0.00, -0.00, -1.00, 89.3, 386.5)">s</text><text xml:space="preserve" font-family="ArialMT,Arial" font-size="14.0" fill="#5A5D5E" transform="matrix(1.00, 0.00, -0.00, -1.00, 96.3, 386.5)">e</text><text xml:space="preserve" font-family="ArialMT,Arial" font-size="14.0" fill="#5A5D5E" transform="matrix(1.00, 0.00, -0.00, -1.00, 104.0, 386.5)">a</text><text xml:space="preserve" font-family="ArialMT,Arial" font-size="14.0" fill="#5A5D5E" transform="matrix(1.00, 0.00, -0.00, -1.00, 111.8, 386.5)">r</text><text xml:space="preserve" font-family="ArialMT,Arial" font-size="14.0" fill="#5A5D5E" transform="matrix(1.00, 0.00, -0.00, -1.00, 116.5, 386.5)">c</text><text xml:space="preserve" font-family="ArialMT,Arial" font-size="14.0" fill="#5A5D5E" transform="matrix(1.00, 0.00, -0.00, -1.00, 123.5, 386.5)">h</text><text xml:space="preserve" font-family="ArialMT,Arial" font-size="14.0" fill="#5A5D5E" transform="matrix(1.00, 0.00, -0.00, -1.00, 131.3, 386.5)"> </text><text xml:space="preserve" font-family="ArialMT,Arial" font-size="14.0" fill="#5A5D5E" transform="matrix(1.00, 0.00, -0.00, -1.00, 135.2, 386.5)">a</text><text xml:space="preserve" font-family="ArialMT,Arial" font-size="14.0" fill="#5A5D5E" transform="matrix(1.00, 0.00, -0.00, -1.00, 143.0, 386.5)">n</text><text xml:space="preserve" font-family="ArialMT,Arial" font-size="14.0" fill="#5A5D5E" transform="matrix(1.00, 0.00, -0.00, -1.00, 150.7, 386.5)">d</text><text xml:space="preserve" font-family="ArialMT,Arial" font-size="14.0" fill="#5A5D5E" transform="matrix(1.00, 0.00, -0.00, -1.00, 158.5, 386.5)"> </text><text xml:space="preserve" font-family="ArialMT,Arial" font-size="14.0" fill="#5A5D5E" transform="matrix(1.00, 0.00, -0.00, -1.00, 162.4, 386.5)">u</text><text xml:space="preserve" font-family="ArialMT,Arial" font-size="14.0" fill="#5A5D5E" transform="matrix(1.00, 0.00, -0.00, -1.00, 170.2, 386.5)">s</text><text xml:space="preserve" font-family="ArialMT,Arial" font-size="14.0" fill="#5A5D5E" transform="matrix(1.00, 0.00, -0.00, -1.00, 177.2, 386.5)">e</text><text xml:space="preserve" font-family="ArialMT,Arial" font-size="14.0" fill="#5A5D5E" transform="matrix(1.00, 0.00, -0.00, -1.00, 185.0, 386.5)"> </text><text xml:space="preserve" font-family="ArialMT,Arial" font-size="14.0" fill="#5A5D5E" transform="matrix(1.00, 0.00, -0.00, -1.00, 188.9, 386.5)">t</text><text xml:space="preserve" font-family="ArialMT,Arial" font-size="14.0" fill="#5A5D5E" transform="matrix(1.00, 0.00, -0.00, -1.00, 192.8, 386.5)">h</text><text xml:space="preserve" font-family="ArialMT,Arial" font-size="14.0" fill="#5A5D5E" transform="matrix(1.00, 0.00, -0.00, -1.00, 200.6, 386.5)">e</text><text xml:space="preserve" font-family="ArialMT,Arial" font-size="14.0" fill="#5A5D5E" transform="matrix(1.00, 0.00, -0.00, -1.00, 208.4, 386.5)"> </text><text xml:space="preserve" font-family="ArialMT,Arial" font-size="14.0" fill="#5A5D5E" transform="matrix(1.00, 0.00, -0.00, -1.00, 212.2, 386.5)">p</text><text xml:space="preserve" font-family="ArialMT,Arial" font-size="14.0" fill="#5A5D5E" transform="matrix(1.00, 0.00, -0.00, -1.00, 220.0, 386.5)">r</text><text xml:space="preserve" font-family="ArialMT,Arial" font-size="14.0" fill="#5A5D5E" transform="matrix(1.00, 0.00, -0.00, -1.00, 224.7, 386.5)">o</text><text xml:space="preserve" font-family="ArialMT,Arial" font-size="14.0" fill="#5A5D5E" transform="matrix(1.00, 0.00, -0.00, -1.00, 232.5, 386.5)">p</text><text xml:space="preserve" font-family="ArialMT,Arial" font-size="14.0" fill="#5A5D5E" transform="matrix(1.00, 0.00, -0.00, -1.00, 240.3, 386.5)">e</text><text xml:space="preserve" font-family="ArialMT,Arial" font-size="14.0" fill="#5A5D5E" transform="matrix(1.00, 0.00, -0.00, -1.00, 248.1, 386.5)">r</text><text xml:space="preserve" font-family="ArialMT,Arial" font-size="14.0" fill="#5A5D5E" transform="matrix(1.00, 0.00, -0.00, -1.00, 252.7, 386.5)"> </text><text xml:space="preserve" font-family="ArialMT,Arial" font-size="14.0" fill="#5A5D5E" transform="matrix(1.00, 0.00, -0.00, -1.00, 256.6, 386.5)">s</text><text xml:space="preserve" font-family="ArialMT,Arial" font-size="14.0" fill="#5A5D5E" transform="matrix(1.00, 0.00, -0.00, -1.00, 263.6, 386.5)">t</text><text xml:space="preserve" font-family="ArialMT,Arial" font-size="14.0" fill="#5A5D5E" transform="matrix(1.00, 0.00, -0.00, -1.00, 267.5, 386.5)">a</text><text xml:space="preserve" font-family="ArialMT,Arial" font-size="14.0" fill="#5A5D5E" transform="matrix(1.00, 0.00, -0.00, -1.00, 275.3, 386.5)">t</text><text xml:space="preserve" font-family="ArialMT,Arial" font-size="14.0" fill="#5A5D5E" transform="matrix(1.00, 0.00, -0.00, -1.00, 279.2, 386.5)">u</text><text xml:space="preserve" font-family="ArialMT,Arial" font-size="14.0" fill="#5A5D5E" transform="matrix(1.00, 0.00, -0.00, -1.00, 287.0, 386.5)">s</text><text xml:space="preserve" font-family="ArialMT,Arial" font-size="14.0" fill="#5A5D5E" transform="matrix(1.00, 0.00, -0.00, -1.00, 294.0, 386.5)"> </text><text xml:space="preserve" font-family="ArialMT,Arial" font-size="14.0" fill="#5A5D5E" transform="matrix(1.00, 0.00, -0.00, -1.00, 297.8, 386.5)">c</text><text xml:space="preserve" font-family="ArialMT,Arial" font-size="14.0" fill="#5A5D5E" transform="matrix(1.00, 0.00, -0.00, -1.00, 304.8, 386.5)">o</text><text xml:space="preserve" font-family="ArialMT,Arial" font-size="14.0" fill="#5A5D5E" transform="matrix(1.00, 0.00, -0.00, -1.00, 312.6, 386.5)">d</text><text xml:space="preserve" font-family="ArialMT,Arial" font-size="14.0" fill="#5A5D5E" transform="matrix(1.00, 0.00, -0.00, -1.00, 320.4, 386.5)">e</text><text xml:space="preserve" font-family="ArialMT,Arial" font-size="14.0" fill="#5A5D5E" transform="matrix(1.00, 0.00, -0.00, -1.00, 328.2, 386.5)">s</text><text xml:space="preserve" font-family="ArialMT,Arial" font-size="14.0" fill="#5A5D5E" transform="matrix(1.00, 0.00, -0.00, -1.00, 335.2, 386.5)"> </text><text xml:space="preserve" font-family="ArialMT,Arial" font-size="14.0" fill="#5A5D5E" transform="matrix(1.00, 0.00, -0.00, -1.00, 89.4, 362.1)">•</text><text xml:space="preserve" font-family="ArialMT,Arial" font-size="14.0" fill="#5A5D5E" transform="matrix(1.00, 0.00, -0.00, -1.00, 107.4, 362.1)">h</text><text xml:space="preserve" font-family="ArialMT,Arial" font-size="14.0" fill="#5A5D5E" transform="matrix(1.00, 0.00, -0.00, -1.00, 115.1, 362.1)">t</text><text xml:space="preserve" font-family="ArialMT,Arial" font-size="14.0" fill="#5A5D5E" transform="matrix(1.00, 0.00, -0.00, -1.00, 119.0, 362.1)">t</text><text xml:space="preserve" font-family="ArialMT,Arial" font-size="14.0" fill="#5A5D5E" transform="matrix(1.00, 0.00, -0.00, -1.00, 122.9, 362.1)">p</text><text xml:space="preserve" font-family="ArialMT,Arial" font-size="14.0" fill="#5A5D5E" transform="matrix(1.00, 0.00, -0.00, -1.00, 130.7, 362.1)">:</text><text xml:space="preserve" font-family="ArialMT,Arial" font-size="14.0" fill="#5A5D5E" transform="matrix(1.00, 0.00, -0.00, -1.00, 134.6, 362.1)">/</text><text xml:space="preserve" font-family="ArialMT,Arial" font-size="14.0" fill="#5A5D5E" transform="matrix(1.00, 0.00, -0.00, -1.00, 138.5, 362.1)">/</text><text xml:space="preserve" font-family="ArialMT,Arial" font-size="14.0" fill="#5A5D5E" transform="matrix(1.00, 0.00, -0.00, -1.00, 142.4, 362.1)">w</text><text xml:space="preserve" font-family="ArialMT,Arial" font-size="14.0" fill="#5A5D5E" transform="matrix(1.00, 0.00, -0.00, -1.00, 152.5, 362.1)">w</text><text xml:space="preserve" font-family="ArialMT,Arial" font-size="14.0" fill="#5A5D5E" transform="matrix(1.00, 0.00, -0.00, -1.00, 162.6, 362.1)">w</text><text xml:space="preserve" font-family="ArialMT,Arial" font-size="14.0" fill="#5A5D5E" transform="matrix(1.00, 0.00, -0.00, -1.00, 171.9, 362.1)">.</text><text xml:space="preserve" font-family="ArialMT,Arial" font-size="14.0" fill="#5A5D5E" transform="matrix(1.00, 0.00, -0.00, -1.00, 175.8, 362.1)">r</text><text xml:space="preserve" font-family="ArialMT,Arial" font-size="14.0" fill="#5A5D5E" transform="matrix(1.00, 0.00, -0.00, -1.00, 180.5, 362.1)">e</text><text xml:space="preserve" font-family="ArialMT,Arial" font-size="14.0" fill="#5A5D5E" transform="matrix(1.00, 0.00, -0.00, -1.00, 188.3, 362.1)">s</text><text xml:space="preserve" font-family="ArialMT,Arial" font-size="14.0" fill="#5A5D5E" transform="matrix(1.00, 0.00, -0.00, -1.00, 195.3, 362.1)">t</text><text xml:space="preserve" font-family="ArialMT,Arial" font-size="14.0" fill="#5A5D5E" transform="matrix(1.00, 0.00, -0.00, -1.00, 199.2, 362.1)">a</text><text xml:space="preserve" font-family="ArialMT,Arial" font-size="14.0" fill="#5A5D5E" transform="matrix(1.00, 0.00, -0.00, -1.00, 206.9, 362.1)">p</text><text xml:space="preserve" font-family="ArialMT,Arial" font-size="14.0" fill="#5A5D5E" transform="matrix(1.00, 0.00, -0.00, -1.00, 214.7, 362.1)">i</text><text xml:space="preserve" font-family="ArialMT,Arial" font-size="14.0" fill="#5A5D5E" transform="matrix(1.00, 0.00, -0.00, -1.00, 217.8, 362.1)">t</text><text xml:space="preserve" font-family="ArialMT,Arial" font-size="14.0" fill="#5A5D5E" transform="matrix(1.00, 0.00, -0.00, -1.00, 221.7, 362.1)">u</text><text xml:space="preserve" font-family="ArialMT,Arial" font-size="14.0" fill="#5A5D5E" transform="matrix(1.00, 0.00, -0.00, -1.00, 229.5, 362.1)">t</text><text xml:space="preserve" font-family="ArialMT,Arial" font-size="14.0" fill="#5A5D5E" transform="matrix(1.00, 0.00, -0.00, -1.00, 233.4, 362.1)">o</text><text xml:space="preserve" font-family="ArialMT,Arial" font-size="14.0" fill="#5A5D5E" transform="matrix(1.00, 0.00, -0.00, -1.00, 241.2, 362.1)">r</text><text xml:space="preserve" font-family="ArialMT,Arial" font-size="14.0" fill="#5A5D5E" transform="matrix(1.00, 0.00, -0.00, -1.00, 245.9, 362.1)">i</text><text xml:space="preserve" font-family="ArialMT,Arial" font-size="14.0" fill="#5A5D5E" transform="matrix(1.00, 0.00, -0.00, -1.00, 249.0, 362.1)">a</text><text xml:space="preserve" font-family="ArialMT,Arial" font-size="14.0" fill="#5A5D5E" transform="matrix(1.00, 0.00, -0.00, -1.00, 256.8, 362.1)">l</text><text xml:space="preserve" font-family="ArialMT,Arial" font-size="14.0" fill="#5A5D5E" transform="matrix(1.00, 0.00, -0.00, -1.00, 259.9, 362.1)">.</text><text xml:space="preserve" font-family="ArialMT,Arial" font-size="14.0" fill="#5A5D5E" transform="matrix(1.00, 0.00, -0.00, -1.00, 263.8, 362.1)">c</text><text xml:space="preserve" font-family="ArialMT,Arial" font-size="14.0" fill="#5A5D5E" transform="matrix(1.00, 0.00, -0.00, -1.00, 270.8, 362.1)">o</text><text xml:space="preserve" font-family="ArialMT,Arial" font-size="14.0" fill="#5A5D5E" transform="matrix(1.00, 0.00, -0.00, -1.00, 278.5, 362.1)">m</text><text xml:space="preserve" font-family="ArialMT,Arial" font-size="14.0" fill="#5A5D5E" transform="matrix(1.00, 0.00, -0.00, -1.00, 290.2, 362.1)">/</text><text xml:space="preserve" font-family="ArialMT,Arial" font-size="14.0" fill="#5A5D5E" transform="matrix(1.00, 0.00, -0.00, -1.00, 294.1, 362.1)">h</text><text xml:space="preserve" font-family="ArialMT,Arial" font-size="14.0" fill="#5A5D5E" transform="matrix(1.00, 0.00, -0.00, -1.00, 301.9, 362.1)">t</text><text xml:space="preserve" font-family="ArialMT,Arial" font-size="14.0" fill="#5A5D5E" transform="matrix(1.00, 0.00, -0.00, -1.00, 305.8, 362.1)">t</text><text xml:space="preserve" font-family="ArialMT,Arial" font-size="14.0" fill="#5A5D5E" transform="matrix(1.00, 0.00, -0.00, -1.00, 309.7, 362.1)">p</text><text xml:space="preserve" font-family="ArialMT,Arial" font-size="14.0" fill="#5A5D5E" transform="matrix(1.00, 0.00, -0.00, -1.00, 317.4, 362.1)">s</text><text xml:space="preserve" font-family="ArialMT,Arial" font-size="14.0" fill="#5A5D5E" transform="matrix(1.00, 0.00, -0.00, -1.00, 324.4, 362.1)">t</text><text xml:space="preserve" font-family="ArialMT,Arial" font-size="14.0" fill="#5A5D5E" transform="matrix(1.00, 0.00, -0.00, -1.00, 328.3, 362.1)">a</text><text xml:space="preserve" font-family="ArialMT,Arial" font-size="14.0" fill="#5A5D5E" transform="matrix(1.00, 0.00, -0.00, -1.00, 336.1, 362.1)">t</text><text xml:space="preserve" font-family="ArialMT,Arial" font-size="14.0" fill="#5A5D5E" transform="matrix(1.00, 0.00, -0.00, -1.00, 340.0, 362.1)">u</text><text xml:space="preserve" font-family="ArialMT,Arial" font-size="14.0" fill="#5A5D5E" transform="matrix(1.00, 0.00, -0.00, -1.00, 347.8, 362.1)">s</text><text xml:space="preserve" font-family="ArialMT,Arial" font-size="14.0" fill="#5A5D5E" transform="matrix(1.00, 0.00, -0.00, -1.00, 354.8, 362.1)">c</text><text xml:space="preserve" font-family="ArialMT,Arial" font-size="14.0" fill="#5A5D5E" transform="matrix(1.00, 0.00, -0.00, -1.00, 361.8, 362.1)">o</text><text xml:space="preserve" font-family="ArialMT,Arial" font-size="14.0" fill="#5A5D5E" transform="matrix(1.00, 0.00, -0.00, -1.00, 369.6, 362.1)">d</text><text xml:space="preserve" font-family="ArialMT,Arial" font-size="14.0" fill="#5A5D5E" transform="matrix(1.00, 0.00, -0.00, -1.00, 377.4, 362.1)">e</text><text xml:space="preserve" font-family="ArialMT,Arial" font-size="14.0" fill="#5A5D5E" transform="matrix(1.00, 0.00, -0.00, -1.00, 385.2, 362.1)">s</text><text xml:space="preserve" font-family="ArialMT,Arial" font-size="14.0" fill="#5A5D5E" transform="matrix(1.00, 0.00, -0.00, -1.00, 392.2, 362.1)">.</text><text xml:space="preserve" font-family="ArialMT,Arial" font-size="14.0" fill="#5A5D5E" transform="matrix(1.00, 0.00, -0.00, -1.00, 396.1, 362.1)">h</text><text xml:space="preserve" font-family="ArialMT,Arial" font-size="14.0" fill="#5A5D5E" transform="matrix(1.00, 0.00, -0.00, -1.00, 403.8, 362.1)">t</text><text xml:space="preserve" font-family="ArialMT,Arial" font-size="14.0" fill="#5A5D5E" transform="matrix(1.00, 0.00, -0.00, -1.00, 407.7, 362.1)">m</text><text xml:space="preserve" font-family="ArialMT,Arial" font-size="14.0" fill="#5A5D5E" transform="matrix(1.00, 0.00, -0.00, -1.00, 419.4, 362.1)">l</text><text xml:space="preserve" font-family="ArialMT,Arial" font-size="14.0" fill="#5A5D5E" transform="matrix(1.00, 0.00, -0.00, -1.00, 422.5, 362.1)"> </text><text xml:space="preserve" font-family="ArialMT,Arial" font-size="14.0" fill="#5A5D5E" transform="matrix(1.00, 0.00, -0.00, -1.00, 53.4, 337.6)">•</text><text xml:space="preserve" font-family="ArialMT,Arial" font-size="14.0" fill="#5A5D5E" transform="matrix(1.00, 0.00, -0.00, -1.00, 71.4, 337.6)">E</text><text xml:space="preserve" font-family="ArialMT,Arial" font-size="14.0" fill="#5A5D5E" transform="matrix(1.00, 0.00, -0.00, -1.00, 80.7, 337.6)">n</text><text xml:space="preserve" font-family="ArialMT,Arial" font-size="14.0" fill="#5A5D5E" transform="matrix(1.00, 0.00, -0.00, -1.00, 88.5, 337.6)">s</text><text xml:space="preserve" font-family="ArialMT,Arial" font-size="14.0" fill="#5A5D5E" transform="matrix(1.00, 0.00, -0.00, -1.00, 95.5, 337.6)">u</text><text xml:space="preserve" font-family="ArialMT,Arial" font-size="14.0" fill="#5A5D5E" transform="matrix(1.00, 0.00, -0.00, -1.00, 103.3, 337.6)">r</text><text xml:space="preserve" font-family="ArialMT,Arial" font-size="14.0" fill="#5A5D5E" transform="matrix(1.00, 0.00, -0.00, -1.00, 107.9, 337.6)">e</text><text xml:space="preserve" font-family="ArialMT,Arial" font-size="14.0" fill="#5A5D5E" transform="matrix(1.00, 0.00, -0.00, -1.00, 115.7, 337.6)"> </text><text xml:space="preserve" font-family="ArialMT,Arial" font-size="14.0" fill="#5A5D5E" transform="matrix(1.00, 0.00, -0.00, -1.00, 119.6, 337.6)">s</text><text xml:space="preserve" font-family="ArialMT,Arial" font-size="14.0" fill="#5A5D5E" transform="matrix(1.00, 0.00, -0.00, -1.00, 126.6, 337.6)">t</text><text xml:space="preserve" font-family="ArialMT,Arial" font-size="14.0" fill="#5A5D5E" transform="matrix(1.00, 0.00, -0.00, -1.00, 130.5, 337.6)">a</text><text xml:space="preserve" font-family="ArialMT,Arial" font-size="14.0" fill="#5A5D5E" transform="matrix(1.00, 0.00, -0.00, -1.00, 138.3, 337.6)">t</text><text xml:space="preserve" font-family="ArialMT,Arial" font-size="14.0" fill="#5A5D5E" transform="matrix(1.00, 0.00, -0.00, -1.00, 142.2, 337.6)">u</text><text xml:space="preserve" font-family="ArialMT,Arial" font-size="14.0" fill="#5A5D5E" transform="matrix(1.00, 0.00, -0.00, -1.00, 150.0, 337.6)">s</text><text xml:space="preserve" font-family="ArialMT,Arial" font-size="14.0" fill="#5A5D5E" transform="matrix(1.00, 0.00, -0.00, -1.00, 157.0, 337.6)"> </text><text xml:space="preserve" font-family="ArialMT,Arial" font-size="14.0" fill="#5A5D5E" transform="matrix(1.00, 0.00, -0.00, -1.00, 160.8, 337.6)">c</text><text xml:space="preserve" font-family="ArialMT,Arial" font-size="14.0" fill="#5A5D5E" transform="matrix(1.00, 0.00, -0.00, -1.00, 167.8, 337.6)">o</text><text xml:space="preserve" font-family="ArialMT,Arial" font-size="14.0" fill="#5A5D5E" transform="matrix(1.00, 0.00, -0.00, -1.00, 175.6, 337.6)">d</text><text xml:space="preserve" font-family="ArialMT,Arial" font-size="14.0" fill="#5A5D5E" transform="matrix(1.00, 0.00, -0.00, -1.00, 183.4, 337.6)">e</text><text xml:space="preserve" font-family="ArialMT,Arial" font-size="14.0" fill="#5A5D5E" transform="matrix(1.00, 0.00, -0.00, -1.00, 191.2, 337.6)">s</text><text xml:space="preserve" font-family="ArialMT,Arial" font-size="14.0" fill="#5A5D5E" transform="matrix(1.00, 0.00, -0.00, -1.00, 198.2, 337.6)"> </text><text xml:space="preserve" font-family="ArialMT,Arial" font-size="14.0" fill="#5A5D5E" transform="matrix(1.00, 0.00, -0.00, -1.00, 202.1, 337.6)">a</text><text xml:space="preserve" font-family="ArialMT,Arial" font-size="14.0" fill="#5A5D5E" transform="matrix(1.00, 0.00, -0.00, -1.00, 209.9, 337.6)">r</text><text xml:space="preserve" font-family="ArialMT,Arial" font-size="14.0" fill="#5A5D5E" transform="matrix(1.00, 0.00, -0.00, -1.00, 214.5, 337.6)">e</text><text xml:space="preserve" font-family="ArialMT,Arial" font-size="14.0" fill="#5A5D5E" transform="matrix(1.00, 0.00, -0.00, -1.00, 222.3, 337.6)"> </text><text xml:space="preserve" font-family="ArialMT,Arial" font-size="14.0" fill="#5A5D5E" transform="matrix(1.00, 0.00, -0.00, -1.00, 226.2, 337.6)">c</text><text xml:space="preserve" font-family="ArialMT,Arial" font-size="14.0" fill="#5A5D5E" transform="matrix(1.00, 0.00, -0.00, -1.00, 233.2, 337.6)">o</text><text xml:space="preserve" font-family="ArialMT,Arial" font-size="14.0" fill="#5A5D5E" transform="matrix(1.00, 0.00, -0.00, -1.00, 241.0, 337.6)">n</text><text xml:space="preserve" font-family="ArialMT,Arial" font-size="14.0" fill="#5A5D5E" transform="matrix(1.00, 0.00, -0.00, -1.00, 248.8, 337.6)">s</text><text xml:space="preserve" font-family="ArialMT,Arial" font-size="14.0" fill="#5A5D5E" transform="matrix(1.00, 0.00, -0.00, -1.00, 255.8, 337.6)">i</text><text xml:space="preserve" font-family="ArialMT,Arial" font-size="14.0" fill="#5A5D5E" transform="matrix(1.00, 0.00, -0.00, -1.00, 258.9, 337.6)">s</text><text xml:space="preserve" font-family="ArialMT,Arial" font-size="14.0" fill="#5A5D5E" transform="matrix(1.00, 0.00, -0.00, -1.00, 265.9, 337.6)">t</text><text xml:space="preserve" font-family="ArialMT,Arial" font-size="14.0" fill="#5A5D5E" transform="matrix(1.00, 0.00, -0.00, -1.00, 269.8, 337.6)">e</text><text xml:space="preserve" font-family="ArialMT,Arial" font-size="14.0" fill="#5A5D5E" transform="matrix(1.00, 0.00, -0.00, -1.00, 277.6, 337.6)">n</text><text xml:space="preserve" font-family="ArialMT,Arial" font-size="14.0" fill="#5A5D5E" transform="matrix(1.00, 0.00, -0.00, -1.00, 285.4, 337.6)">t</text><text xml:space="preserve" font-family="ArialMT,Arial" font-size="14.0" fill="#5A5D5E" transform="matrix(1.00, 0.00, -0.00, -1.00, 289.3, 337.6)"> </text><text xml:space="preserve" font-family="ArialMT,Arial" font-size="14.0" fill="#5A5D5E" transform="matrix(1.00, 0.00, -0.00, -1.00, 293.2, 337.6)">t</text><text xml:space="preserve" font-family="ArialMT,Arial" font-size="14.0" fill="#5A5D5E" transform="matrix(1.00, 0.00, -0.00, -1.00, 297.0, 337.6)">h</text><text xml:space="preserve" font-family="ArialMT,Arial" font-size="14.0" fill="#5A5D5E" transform="matrix(1.00, 0.00, -0.00, -1.00, 304.8, 337.6)">r</text><text xml:space="preserve" font-family="ArialMT,Arial" font-size="14.0" fill="#5A5D5E" transform="matrix(1.00, 0.00, -0.00, -1.00, 309.5, 337.6)">o</text><text xml:space="preserve" font-family="ArialMT,Arial" font-size="14.0" fill="#5A5D5E" transform="matrix(1.00, 0.00, -0.00, -1.00, 317.3, 337.6)">u</text><text xml:space="preserve" font-family="ArialMT,Arial" font-size="14.0" fill="#5A5D5E" transform="matrix(1.00, 0.00, -0.00, -1.00, 325.1, 337.6)">g</text><text xml:space="preserve" font-family="ArialMT,Arial" font-size="14.0" fill="#5A5D5E" transform="matrix(1.00, 0.00, -0.00, -1.00, 332.9, 337.6)">h</text><text xml:space="preserve" font-family="ArialMT,Arial" font-size="14.0" fill="#5A5D5E" transform="matrix(1.00, 0.00, -0.00, -1.00, 340.6, 337.6)"> </text><text xml:space="preserve" font-family="ArialMT,Arial" font-size="14.0" fill="#5A5D5E" transform="matrix(1.00, 0.00, -0.00, -1.00, 344.5, 337.6)">a</text><text xml:space="preserve" font-family="ArialMT,Arial" font-size="14.0" fill="#5A5D5E" transform="matrix(1.00, 0.00, -0.00, -1.00, 352.3, 337.6)">p</text><text xml:space="preserve" font-family="ArialMT,Arial" font-size="14.0" fill="#5A5D5E" transform="matrix(1.00, 0.00, -0.00, -1.00, 360.1, 337.6)">p</text><text xml:space="preserve" font-family="ArialMT,Arial" font-size="14.0" fill="#5A5D5E" transform="matrix(1.00, 0.00, -0.00, -1.00, 367.9, 337.6)">l</text><text xml:space="preserve" font-family="ArialMT,Arial" font-size="14.0" fill="#5A5D5E" transform="matrix(1.00, 0.00, -0.00, -1.00, 371.0, 337.6)">i</text><text xml:space="preserve" font-family="ArialMT,Arial" font-size="14.0" fill="#5A5D5E" transform="matrix(1.00, 0.00, -0.00, -1.00, 374.1, 337.6)">c</text><text xml:space="preserve" font-family="ArialMT,Arial" font-size="14.0" fill="#5A5D5E" transform="matrix(1.00, 0.00, -0.00, -1.00, 381.1, 337.6)">a</text><text xml:space="preserve" font-family="ArialMT,Arial" font-size="14.0" fill="#5A5D5E" transform="matrix(1.00, 0.00, -0.00, -1.00, 388.9, 337.6)">t</text><text xml:space="preserve" font-family="ArialMT,Arial" font-size="14.0" fill="#5A5D5E" transform="matrix(1.00, 0.00, -0.00, -1.00, 392.8, 337.6)">i</text><text xml:space="preserve" font-family="ArialMT,Arial" font-size="14.0" fill="#5A5D5E" transform="matrix(1.00, 0.00, -0.00, -1.00, 395.9, 337.6)">o</text><text xml:space="preserve" font-family="ArialMT,Arial" font-size="14.0" fill="#5A5D5E" transform="matrix(1.00, 0.00, -0.00, -1.00, 403.7, 337.6)">n</text><g><clipPath id="clip0x6000036a3c00"><path d="M 695.5 330.5 L 838.5 330.5 L 838.5 132.5 L 695.5 132.5 Z M 695.7 330.1 "></path></clipPath><g clip-path="url(#clip0x6000036a3c00)"><path d="M 695.5 330.5 L 838.5 330.5 L 838.5 132.5 L 695.5 132.5 Z M 695.7 330.1 " fill="url(#gradSh1.27)"></path></g></g><path d="M -0.2 -0.4 L 142.8 -0.4 L 142.8 197.6 L -0.2 197.6 Z M 0.0 0.0 " fill="none" stroke="#4471C4" stroke-width="0.50" transform="matrix(1.00, 0.00, 0.00, -1.00, 695.7, 330.1)"></path><g><clipPath id="clip0x6000038a3fc0"><path d="M 690.1 126.8 L 843.9 126.8 L 843.9 335.7 L 690.1 335.7 Z M 690.1 126.8 "></path></clipPath><g clip-path="url(#clip0x6000038a3fc0)"><text xml:space="preserve" font-family="Calibri,Calibri" font-size="31.0" fill="#FFFFFF" transform="matrix(1.00, 0.00, -0.00, -1.00, 699.5, 296.6)">1</text><text xml:space="preserve" font-family="Calibri,Calibri" font-size="31.0" fill="#FFFFFF" transform="matrix(1.00, 0.00, -0.00, -1.00, 715.2, 296.6)">X</text><text xml:space="preserve" font-family="Calibri,Calibri" font-size="31.0" fill="#FFFFFF" transform="matrix(1.00, 0.00, -0.00, -1.00, 731.3, 296.6)">X</text><text xml:space="preserve" font-family="Calibri,Calibri" font-size="31.0" fill="#FFFFFF" transform="matrix(1.00, 0.00, -0.00, -1.00, 747.4, 296.6)">	</text><text xml:space="preserve" font-family="Calibri,Calibri" font-size="31.0" fill="#FFFFFF" transform="matrix(1.00, 0.00, -0.00, -1.00, 775.4, 296.6)"></text><text xml:space="preserve" font-family="Calibri,Calibri" font-size="31.0" fill="#FFFFFF" transform="matrix(1.00, 0.00, -0.00, -1.00, 775.4, 296.6)"> </text><text xml:space="preserve" font-family="Calibri,Calibri" font-size="31.0" fill="#FFFFFF" transform="matrix(1.00, 0.00, -0.00, -1.00, 782.4, 296.6)"> </text><text xml:space="preserve" font-family="Calibri,Calibri" font-size="31.0" fill="#FFFFFF" transform="matrix(1.00, 0.00, -0.00, -1.00, 699.5, 258.6)">2</text><text xml:space="preserve" font-family="Calibri,Calibri" font-size="31.0" fill="#FFFFFF" transform="matrix(1.00, 0.00, -0.00, -1.00, 715.2, 258.6)">X</text><text xml:space="preserve" font-family="Calibri,Calibri" font-size="31.0" fill="#FFFFFF" transform="matrix(1.00, 0.00, -0.00, -1.00, 731.3, 258.6)">X</text><text xml:space="preserve" font-family="Calibri,Calibri" font-size="31.0" fill="#FFFFFF" transform="matrix(1.00, 0.00, -0.00, -1.00, 747.4, 258.6)">	</text><text xml:space="preserve" font-family="Calibri,Calibri" font-size="31.0" fill="#FFFFFF" transform="matrix(1.00, 0.00, -0.00, -1.00, 775.4, 258.6)"></text><text xml:space="preserve" font-family="Calibri,Calibri" font-size="31.0" fill="#FFFFFF" transform="matrix(1.00, 0.00, -0.00, -1.00, 775.4, 258.6)"> </text><text xml:space="preserve" font-family="Calibri,Calibri" font-size="31.0" fill="#FFFFFF" transform="matrix(1.00, 0.00, -0.00, -1.00, 782.4, 258.6)"> </text><text xml:space="preserve" font-family="Calibri,Calibri" font-size="31.0" fill="#FFFFFF" transform="matrix(1.00, 0.00, -0.00, -1.00, 699.5, 220.6)">3</text><text xml:space="preserve" font-family="Calibri,Calibri" font-size="31.0" fill="#FFFFFF" transform="matrix(1.00, 0.00, -0.00, -1.00, 715.2, 220.6)">X</text><text xml:space="preserve" font-family="Calibri,Calibri" font-size="31.0" fill="#FFFFFF" transform="matrix(1.00, 0.00, -0.00, -1.00, 731.3, 220.6)">X</text><text xml:space="preserve" font-family="Calibri,Calibri" font-size="31.0" fill="#FFFFFF" transform="matrix(1.00, 0.00, -0.00, -1.00, 747.4, 220.6)">	</text><text xml:space="preserve" font-family="Calibri,Calibri" font-size="31.0" fill="#FFFFFF" transform="matrix(1.00, 0.00, -0.00, -1.00, 775.4, 220.6)"></text><text xml:space="preserve" font-family="Calibri,Calibri" font-size="31.0" fill="#FFFFFF" transform="matrix(1.00, 0.00, -0.00, -1.00, 775.4, 220.6)"> </text><text xml:space="preserve" font-family="Calibri,Calibri" font-size="31.0" fill="#FFFFFF" transform="matrix(1.00, 0.00, -0.00, -1.00, 782.4, 220.6)"> </text><text xml:space="preserve" font-family="Calibri,Calibri" font-size="31.0" fill="#FFFFFF" transform="matrix(1.00, 0.00, -0.00, -1.00, 699.5, 182.6)">4</text><text xml:space="preserve" font-family="Calibri,Calibri" font-size="31.0" fill="#FFFFFF" transform="matrix(1.00, 0.00, -0.00, -1.00, 715.2, 182.6)">X</text><text xml:space="preserve" font-family="Calibri,Calibri" font-size="31.0" fill="#FFFFFF" transform="matrix(1.00, 0.00, -0.00, -1.00, 731.3, 182.6)">X</text><text xml:space="preserve" font-family="Calibri,Calibri" font-size="31.0" fill="#FFFFFF" transform="matrix(1.00, 0.00, -0.00, -1.00, 747.4, 182.6)">	</text><text xml:space="preserve" font-family="Calibri,Calibri" font-size="31.0" fill="#FFFFFF" transform="matrix(1.00, 0.00, -0.00, -1.00, 775.4, 182.6)"></text><text xml:space="preserve" font-family="Calibri,Calibri" font-size="31.0" fill="#FFFFFF" transform="matrix(1.00, 0.00, -0.00, -1.00, 775.4, 182.6)"> </text><text xml:space="preserve" font-family="Calibri,Calibri" font-size="31.0" fill="#FFFFFF" transform="matrix(1.00, 0.00, -0.00, -1.00, 782.4, 182.6)"> </text><text xml:space="preserve" font-family="Calibri,Calibri" font-size="31.0" fill="#FFFFFF" transform="matrix(1.00, 0.00, -0.00, -1.00, 699.5, 144.6)">5</text><text xml:space="preserve" font-family="Calibri,Calibri" font-size="31.0" fill="#FFFFFF" transform="matrix(1.00, 0.00, -0.00, -1.00, 715.2, 144.6)">X</text><text xml:space="preserve" font-family="Calibri,Calibri" font-size="31.0" fill="#FFFFFF" transform="matrix(1.00, 0.00, -0.00, -1.00, 731.3, 144.6)">X</text></g></g></g></svg>