<?xml version="1.0" encoding="UTF-8" standalone="no"?><svg xmlns="http://www.w3.org/2000/svg" xmlns:xlink="http://www.w3.org/1999/xlink" clip-rule="evenodd" stroke-miterlimit="10" viewBox="0 0 960 540"><desc>SVG generated by Keynote</desc><defs></defs><g transform="matrix(1.00, 0.00, -0.00, -1.00, 0.0, 540.0)"><path d="M 0.0 540.0 L 960.0 540.0 L 960.0 0.0 L 0.0 0.0 Z M 0.0 540.0 " fill="#FFFFFF"></path><image xlink:href="9B6F1FF9C403C4975AFC4129885D3BD0.png" width="2666.00" height="1500.00" transform="matrix(0.36, 0.00, -0.00, -0.36, 0.0, 540.0)"></image><image xlink:href="682963C1B565030DFC9B7FDC13E41931.png" width="1000.00" height="400.00" transform="matrix(0.09, 0.00, -0.00, -0.09, 27.0, 43.0)"></image><image xlink:href="43C08F110E859B65BD11394DC775954C.png" width="1000.00" height="400.00" transform="matrix(0.07, 0.00, -0.00, -0.07, 851.0, 43.0)"></image><g><clipPath id="clip0x600000eac0c0"><path d="M 115.2 267.6 L 844.8 267.6 L 844.8 536.4 L 115.2 536.4 Z M 115.2 267.6 "></path></clipPath><g clip-path="url(#clip0x600000eac0c0)"><text xml:space="preserve" font-family="Arial-BoldMT,Arial" font-weight="bold" font-size="30.0" fill="#FFFFFF" transform="matrix(1.00, 0.00, -0.00, -1.00, 305.3, 273.7)">W</text><text xml:space="preserve" font-family="Arial-BoldMT,Arial" font-weight="bold" font-size="30.0" fill="#FFFFFF" transform="matrix(1.00, 0.00, -0.00, -1.00, 333.0, 273.7)">o</text><text xml:space="preserve" font-family="Arial-BoldMT,Arial" font-weight="bold" font-size="30.0" fill="#FFFFFF" transform="matrix(1.00, 0.00, -0.00, -1.00, 351.4, 273.7)">w</text><text xml:space="preserve" font-family="Arial-BoldMT,Arial" font-weight="bold" font-size="30.0" fill="#FFFFFF" transform="matrix(1.00, 0.00, -0.00, -1.00, 374.7, 273.7)">z</text><text xml:space="preserve" font-family="Arial-BoldMT,Arial" font-weight="bold" font-size="30.0" fill="#FFFFFF" transform="matrix(1.00, 0.00, -0.00, -1.00, 389.7, 273.7)">a</text><text xml:space="preserve" font-family="Arial-BoldMT,Arial" font-weight="bold" font-size="30.0" fill="#FFFFFF" transform="matrix(1.00, 0.00, -0.00, -1.00, 406.4, 273.7)"> </text><text xml:space="preserve" font-family="Arial-BoldMT,Arial" font-weight="bold" font-size="30.0" fill="#FFFFFF" transform="matrix(1.00, 0.00, -0.00, -1.00, 414.7, 273.7)">S</text><text xml:space="preserve" font-family="Arial-BoldMT,Arial" font-weight="bold" font-size="30.0" fill="#FFFFFF" transform="matrix(1.00, 0.00, -0.00, -1.00, 434.7, 273.7)">t</text><text xml:space="preserve" font-family="Arial-BoldMT,Arial" font-weight="bold" font-size="30.0" fill="#FFFFFF" transform="matrix(1.00, 0.00, -0.00, -1.00, 444.7, 273.7)">r</text><text xml:space="preserve" font-family="Arial-BoldMT,Arial" font-weight="bold" font-size="30.0" fill="#FFFFFF" transform="matrix(1.00, 0.00, -0.00, -1.00, 456.4, 273.7)">e</text><text xml:space="preserve" font-family="Arial-BoldMT,Arial" font-weight="bold" font-size="30.0" fill="#FFFFFF" transform="matrix(1.00, 0.00, -0.00, -1.00, 473.1, 273.7)">a</text><text xml:space="preserve" font-family="Arial-BoldMT,Arial" font-weight="bold" font-size="30.0" fill="#FFFFFF" transform="matrix(1.00, 0.00, -0.00, -1.00, 489.8, 273.7)">m</text><text xml:space="preserve" font-family="Arial-BoldMT,Arial" font-weight="bold" font-size="30.0" fill="#FFFFFF" transform="matrix(1.00, 0.00, -0.00, -1.00, 516.4, 273.7)">i</text><text xml:space="preserve" font-family="Arial-BoldMT,Arial" font-weight="bold" font-size="30.0" fill="#FFFFFF" transform="matrix(1.00, 0.00, -0.00, -1.00, 524.8, 273.7)">n</text><text xml:space="preserve" font-family="Arial-BoldMT,Arial" font-weight="bold" font-size="30.0" fill="#FFFFFF" transform="matrix(1.00, 0.00, -0.00, -1.00, 543.1, 273.7)">g</text><text xml:space="preserve" font-family="Arial-BoldMT,Arial" font-weight="bold" font-size="30.0" fill="#FFFFFF" transform="matrix(1.00, 0.00, -0.00, -1.00, 561.4, 273.7)"> </text><text xml:space="preserve" font-family="Arial-BoldMT,Arial" font-weight="bold" font-size="30.0" fill="#FFFFFF" transform="matrix(1.00, 0.00, -0.00, -1.00, 569.7, 273.7)">C</text><text xml:space="preserve" font-family="Arial-BoldMT,Arial" font-weight="bold" font-size="30.0" fill="#FFFFFF" transform="matrix(1.00, 0.00, -0.00, -1.00, 591.4, 273.7)">l</text><text xml:space="preserve" font-family="Arial-BoldMT,Arial" font-weight="bold" font-size="30.0" fill="#FFFFFF" transform="matrix(1.00, 0.00, -0.00, -1.00, 599.7, 273.7)">o</text><text xml:space="preserve" font-family="Arial-BoldMT,Arial" font-weight="bold" font-size="30.0" fill="#FFFFFF" transform="matrix(1.00, 0.00, -0.00, -1.00, 618.1, 273.7)">u</text><text xml:space="preserve" font-family="Arial-BoldMT,Arial" font-weight="bold" font-size="30.0" fill="#FFFFFF" transform="matrix(1.00, 0.00, -0.00, -1.00, 636.4, 273.7)">d</text></g></g><text xml:space="preserve" font-family="Rockwell-Italic,Rockwell" font-style="italic" font-size="24.0" fill="#FFFFFF" transform="matrix(1.00, 0.00, -0.00, -1.00, 293.6, 230.3)">P</text><text xml:space="preserve" font-family="Rockwell-Italic,Rockwell" font-style="italic" font-size="24.0" fill="#FFFFFF" transform="matrix(1.00, 0.00, -0.00, -1.00, 306.6, 230.3)">u</text><text xml:space="preserve" font-family="Rockwell-Italic,Rockwell" font-style="italic" font-size="24.0" fill="#FFFFFF" transform="matrix(1.00, 0.00, -0.00, -1.00, 319.9, 230.3)">b</text><text xml:space="preserve" font-family="Rockwell-Italic,Rockwell" font-style="italic" font-size="24.0" fill="#FFFFFF" transform="matrix(1.00, 0.00, -0.00, -1.00, 334.2, 230.3)">l</text><text xml:space="preserve" font-family="Rockwell-Italic,Rockwell" font-style="italic" font-size="24.0" fill="#FFFFFF" transform="matrix(1.00, 0.00, -0.00, -1.00, 340.9, 230.3)">i</text><text xml:space="preserve" font-family="Rockwell-Italic,Rockwell" font-style="italic" font-size="24.0" fill="#FFFFFF" transform="matrix(1.00, 0.00, -0.00, -1.00, 347.6, 230.3)">c</text><text xml:space="preserve" font-family="Rockwell-Italic,Rockwell" font-style="italic" font-size="24.0" fill="#FFFFFF" transform="matrix(1.00, 0.00, -0.00, -1.00, 359.6, 230.3)"> </text><text xml:space="preserve" font-family="Rockwell-Italic,Rockwell" font-style="italic" font-size="24.0" fill="#FFFFFF" transform="matrix(1.00, 0.00, -0.00, -1.00, 364.9, 230.3)">A</text><text xml:space="preserve" font-family="Rockwell-Italic,Rockwell" font-style="italic" font-size="24.0" fill="#FFFFFF" transform="matrix(1.00, 0.00, -0.00, -1.00, 380.4, 230.3)">P</text><text xml:space="preserve" font-family="Rockwell-Italic,Rockwell" font-style="italic" font-size="24.0" fill="#FFFFFF" transform="matrix(1.00, 0.00, -0.00, -1.00, 393.4, 230.3)">I</text><text xml:space="preserve" font-family="Rockwell-Italic,Rockwell" font-style="italic" font-size="24.0" fill="#FFFFFF" transform="matrix(1.00, 0.00, -0.00, -1.00, 400.4, 230.3)"> </text><text xml:space="preserve" font-family="Rockwell-Italic,Rockwell" font-style="italic" font-size="24.0" fill="#FFFFFF" transform="matrix(1.00, 0.00, -0.00, -1.00, 406.4, 230.3)">D</text><text xml:space="preserve" font-family="Rockwell-Italic,Rockwell" font-style="italic" font-size="24.0" fill="#FFFFFF" transform="matrix(1.00, 0.00, -0.00, -1.00, 423.4, 230.3)">e</text><text xml:space="preserve" font-family="Rockwell-Italic,Rockwell" font-style="italic" font-size="24.0" fill="#FFFFFF" transform="matrix(1.00, 0.00, -0.00, -1.00, 435.6, 230.3)">v</text><text xml:space="preserve" font-family="Rockwell-Italic,Rockwell" font-style="italic" font-size="24.0" fill="#FFFFFF" transform="matrix(1.00, 0.00, -0.00, -1.00, 447.1, 230.3)">e</text><text xml:space="preserve" font-family="Rockwell-Italic,Rockwell" font-style="italic" font-size="24.0" fill="#FFFFFF" transform="matrix(1.00, 0.00, -0.00, -1.00, 460.3, 230.3)">l</text><text xml:space="preserve" font-family="Rockwell-Italic,Rockwell" font-style="italic" font-size="24.0" fill="#FFFFFF" transform="matrix(1.00, 0.00, -0.00, -1.00, 467.1, 230.3)">o</text><text xml:space="preserve" font-family="Rockwell-Italic,Rockwell" font-style="italic" font-size="24.0" fill="#FFFFFF" transform="matrix(1.00, 0.00, -0.00, -1.00, 480.6, 230.3)">p</text><text xml:space="preserve" font-family="Rockwell-Italic,Rockwell" font-style="italic" font-size="24.0" fill="#FFFFFF" transform="matrix(1.00, 0.00, -0.00, -1.00, 495.1, 230.3)">m</text><text xml:space="preserve" font-family="Rockwell-Italic,Rockwell" font-style="italic" font-size="24.0" fill="#FFFFFF" transform="matrix(1.00, 0.00, -0.00, -1.00, 515.3, 230.3)">e</text><text xml:space="preserve" font-family="Rockwell-Italic,Rockwell" font-style="italic" font-size="24.0" fill="#FFFFFF" transform="matrix(1.00, 0.00, -0.00, -1.00, 528.6, 230.3)">n</text><text xml:space="preserve" font-family="Rockwell-Italic,Rockwell" font-style="italic" font-size="24.0" fill="#FFFFFF" transform="matrix(1.00, 0.00, -0.00, -1.00, 541.8, 230.3)">t</text><text xml:space="preserve" font-family="Rockwell-Italic,Rockwell" font-style="italic" font-size="24.0" fill="#FFFFFF" transform="matrix(1.00, 0.00, -0.00, -1.00, 548.8, 230.3)"> </text><text xml:space="preserve" font-family="Rockwell-Italic,Rockwell" font-style="italic" font-size="24.0" fill="#FFFFFF" transform="matrix(1.00, 0.00, -0.00, -1.00, 554.8, 230.3)">w</text><text xml:space="preserve" font-family="Rockwell-Italic,Rockwell" font-style="italic" font-size="24.0" fill="#FFFFFF" transform="matrix(1.00, 0.00, -0.00, -1.00, 572.6, 230.3)">i</text><text xml:space="preserve" font-family="Rockwell-Italic,Rockwell" font-style="italic" font-size="24.0" fill="#FFFFFF" transform="matrix(1.00, 0.00, -0.00, -1.00, 579.3, 230.3)">t</text><text xml:space="preserve" font-family="Rockwell-Italic,Rockwell" font-style="italic" font-size="24.0" fill="#FFFFFF" transform="matrix(1.00, 0.00, -0.00, -1.00, 586.4, 230.3)">h</text><text xml:space="preserve" font-family="Rockwell-Italic,Rockwell" font-style="italic" font-size="24.0" fill="#FFFFFF" transform="matrix(1.00, 0.00, -0.00, -1.00, 599.6, 230.3)"> </text><text xml:space="preserve" font-family="Rockwell-Italic,Rockwell" font-style="italic" font-size="24.0" fill="#FFFFFF" transform="matrix(1.00, 0.00, -0.00, -1.00, 605.6, 230.3)">R</text><text xml:space="preserve" font-family="Rockwell-Italic,Rockwell" font-style="italic" font-size="24.0" fill="#FFFFFF" transform="matrix(1.00, 0.00, -0.00, -1.00, 619.6, 230.3)">A</text><text xml:space="preserve" font-family="Rockwell-Italic,Rockwell" font-style="italic" font-size="24.0" fill="#FFFFFF" transform="matrix(1.00, 0.00, -0.00, -1.00, 635.1, 230.3)">I</text><text xml:space="preserve" font-family="Rockwell-Italic,Rockwell" font-style="italic" font-size="24.0" fill="#FFFFFF" transform="matrix(1.00, 0.00, -0.00, -1.00, 642.1, 230.3)">L</text><text xml:space="preserve" font-family="Rockwell-Italic,Rockwell" font-style="italic" font-size="24.0" fill="#FFFFFF" transform="matrix(1.00, 0.00, -0.00, -1.00, 653.9, 230.3)">S</text><text xml:space="preserve" font-family="Rockwell-Italic,Rockwell" font-style="italic" font-size="24.0" fill="#FFFFFF" transform="matrix(1.00, 0.00, -0.00, -1.00, 666.4, 230.3)"> </text><text xml:space="preserve" font-family="Rockwell-Italic,Rockwell" font-style="italic" font-size="24.0" fill="#FFFFFF" transform="matrix(1.00, 0.00, -0.00, -1.00, 413.8, 124.7)">W</text><text xml:space="preserve" font-family="Rockwell-Italic,Rockwell" font-style="italic" font-size="24.0" fill="#FFFFFF" transform="matrix(1.00, 0.00, -0.00, -1.00, 436.5, 124.7)">i</text><text xml:space="preserve" font-family="Rockwell-Italic,Rockwell" font-style="italic" font-size="24.0" fill="#FFFFFF" transform="matrix(1.00, 0.00, -0.00, -1.00, 443.2, 124.7)">l</text><text xml:space="preserve" font-family="Rockwell-Italic,Rockwell" font-style="italic" font-size="24.0" fill="#FFFFFF" transform="matrix(1.00, 0.00, -0.00, -1.00, 450.0, 124.7)">l</text><text xml:space="preserve" font-family="Rockwell-Italic,Rockwell" font-style="italic" font-size="24.0" fill="#FFFFFF" transform="matrix(1.00, 0.00, -0.00, -1.00, 456.7, 124.7)"> </text><text xml:space="preserve" font-family="Rockwell-Italic,Rockwell" font-style="italic" font-size="24.0" fill="#FFFFFF" transform="matrix(1.00, 0.00, -0.00, -1.00, 462.7, 124.7)">S</text><text xml:space="preserve" font-family="Rockwell-Italic,Rockwell" font-style="italic" font-size="24.0" fill="#FFFFFF" transform="matrix(1.00, 0.00, -0.00, -1.00, 475.2, 124.7)">t</text><text xml:space="preserve" font-family="Rockwell-Italic,Rockwell" font-style="italic" font-size="24.0" fill="#FFFFFF" transform="matrix(1.00, 0.00, -0.00, -1.00, 482.2, 124.7)">e</text><text xml:space="preserve" font-family="Rockwell-Italic,Rockwell" font-style="italic" font-size="24.0" fill="#FFFFFF" transform="matrix(1.00, 0.00, -0.00, -1.00, 495.5, 124.7)">r</text><text xml:space="preserve" font-family="Rockwell-Italic,Rockwell" font-style="italic" font-size="24.0" fill="#FFFFFF" transform="matrix(1.00, 0.00, -0.00, -1.00, 505.0, 124.7)">l</text><text xml:space="preserve" font-family="Rockwell-Italic,Rockwell" font-style="italic" font-size="24.0" fill="#FFFFFF" transform="matrix(1.00, 0.00, -0.00, -1.00, 511.7, 124.7)">i</text><text xml:space="preserve" font-family="Rockwell-Italic,Rockwell" font-style="italic" font-size="24.0" fill="#FFFFFF" transform="matrix(1.00, 0.00, -0.00, -1.00, 518.4, 124.7)">n</text><text xml:space="preserve" font-family="Rockwell-Italic,Rockwell" font-style="italic" font-size="24.0" fill="#FFFFFF" transform="matrix(1.00, 0.00, -0.00, -1.00, 531.7, 124.7)">g</text><text xml:space="preserve" font-family="Rockwell-Italic,Rockwell" font-style="italic" font-size="24.0" fill="#FFFFFF" transform="matrix(1.00, 0.00, -0.00, -1.00, 546.2, 124.7)"> </text><text xml:space="preserve" font-family="Rockwell-Italic,Rockwell" font-style="italic" font-size="24.0" fill="#FFFFFF" transform="matrix(1.00, 0.00, -0.00, -1.00, 402.3, 89.5)">@</text><text xml:space="preserve" font-family="Rockwell-Italic,Rockwell" font-style="italic" font-size="24.0" fill="#FFFFFF" transform="matrix(1.00, 0.00, -0.00, -1.00, 426.5, 89.5)">w</text><text xml:space="preserve" font-family="Rockwell-Italic,Rockwell" font-style="italic" font-size="24.0" fill="#FFFFFF" transform="matrix(1.00, 0.00, -0.00, -1.00, 444.3, 89.5)">i</text><text xml:space="preserve" font-family="Rockwell-Italic,Rockwell" font-style="italic" font-size="24.0" fill="#FFFFFF" transform="matrix(1.00, 0.00, -0.00, -1.00, 451.0, 89.5)">l</text><text xml:space="preserve" font-family="Rockwell-Italic,Rockwell" font-style="italic" font-size="24.0" fill="#FFFFFF" transform="matrix(1.00, 0.00, -0.00, -1.00, 457.8, 89.5)">l</text><text xml:space="preserve" font-family="Rockwell-Italic,Rockwell" font-style="italic" font-size="24.0" fill="#FFFFFF" transform="matrix(1.00, 0.00, -0.00, -1.00, 464.5, 89.5)">_</text><text xml:space="preserve" font-family="Rockwell-Italic,Rockwell" font-style="italic" font-size="24.0" fill="#FFFFFF" transform="matrix(1.00, 0.00, -0.00, -1.00, 476.5, 89.5)">s</text><text xml:space="preserve" font-family="Rockwell-Italic,Rockwell" font-style="italic" font-size="24.0" fill="#FFFFFF" transform="matrix(1.00, 0.00, -0.00, -1.00, 486.7, 89.5)">t</text><text xml:space="preserve" font-family="Rockwell-Italic,Rockwell" font-style="italic" font-size="24.0" fill="#FFFFFF" transform="matrix(1.00, 0.00, -0.00, -1.00, 493.7, 89.5)">e</text><text xml:space="preserve" font-family="Rockwell-Italic,Rockwell" font-style="italic" font-size="24.0" fill="#FFFFFF" transform="matrix(1.00, 0.00, -0.00, -1.00, 507.0, 89.5)">r</text><text xml:space="preserve" font-family="Rockwell-Italic,Rockwell" font-style="italic" font-size="24.0" fill="#FFFFFF" transform="matrix(1.00, 0.00, -0.00, -1.00, 516.5, 89.5)">l</text><text xml:space="preserve" font-family="Rockwell-Italic,Rockwell" font-style="italic" font-size="24.0" fill="#FFFFFF" transform="matrix(1.00, 0.00, -0.00, -1.00, 523.2, 89.5)">i</text><text xml:space="preserve" font-family="Rockwell-Italic,Rockwell" font-style="italic" font-size="24.0" fill="#FFFFFF" transform="matrix(1.00, 0.00, -0.00, -1.00, 529.9, 89.5)">n</text><text xml:space="preserve" font-family="Rockwell-Italic,Rockwell" font-style="italic" font-size="24.0" fill="#FFFFFF" transform="matrix(1.00, 0.00, -0.00, -1.00, 543.2, 89.5)">g</text><text xml:space="preserve" font-family="Rockwell-Italic,Rockwell" font-style="italic" font-size="24.0" fill="#FFFFFF" transform="matrix(1.00, 0.00, -0.00, -1.00, 557.7, 89.5)"> </text><text xml:space="preserve" font-family="Rockwell-Italic,Rockwell" font-style="italic" font-size="24.0" fill="#FFFFFF" transform="matrix(1.00, 0.00, -0.00, -1.00, 404.6, 54.3)">s</text><text xml:space="preserve" font-family="Rockwell-Italic,Rockwell" font-style="italic" font-size="24.0" fill="#FFFFFF" transform="matrix(1.00, 0.00, -0.00, -1.00, 414.9, 54.3)">t</text><text xml:space="preserve" font-family="Rockwell-Italic,Rockwell" font-style="italic" font-size="24.0" fill="#FFFFFF" transform="matrix(1.00, 0.00, -0.00, -1.00, 421.9, 54.3)">e</text><text xml:space="preserve" font-family="Rockwell-Italic,Rockwell" font-style="italic" font-size="24.0" fill="#FFFFFF" transform="matrix(1.00, 0.00, -0.00, -1.00, 435.1, 54.3)">r</text><text xml:space="preserve" font-family="Rockwell-Italic,Rockwell" font-style="italic" font-size="24.0" fill="#FFFFFF" transform="matrix(1.00, 0.00, -0.00, -1.00, 444.6, 54.3)">l</text><text xml:space="preserve" font-family="Rockwell-Italic,Rockwell" font-style="italic" font-size="24.0" fill="#FFFFFF" transform="matrix(1.00, 0.00, -0.00, -1.00, 451.4, 54.3)">i</text><text xml:space="preserve" font-family="Rockwell-Italic,Rockwell" font-style="italic" font-size="24.0" fill="#FFFFFF" transform="matrix(1.00, 0.00, -0.00, -1.00, 458.1, 54.3)">n</text><text xml:space="preserve" font-family="Rockwell-Italic,Rockwell" font-style="italic" font-size="24.0" fill="#FFFFFF" transform="matrix(1.00, 0.00, -0.00, -1.00, 471.3, 54.3)">g</text><text xml:space="preserve" font-family="Rockwell-Italic,Rockwell" font-style="italic" font-size="24.0" fill="#FFFFFF" transform="matrix(1.00, 0.00, -0.00, -1.00, 485.1, 54.3)">.</text><text xml:space="preserve" font-family="Rockwell-Italic,Rockwell" font-style="italic" font-size="24.0" fill="#FFFFFF" transform="matrix(1.00, 0.00, -0.00, -1.00, 491.8, 54.3)">c</text><text xml:space="preserve" font-family="Rockwell-Italic,Rockwell" font-style="italic" font-size="24.0" fill="#FFFFFF" transform="matrix(1.00, 0.00, -0.00, -1.00, 503.8, 54.3)">o</text><text xml:space="preserve" font-family="Rockwell-Italic,Rockwell" font-style="italic" font-size="24.0" fill="#FFFFFF" transform="matrix(1.00, 0.00, -0.00, -1.00, 517.4, 54.3)">d</text><text xml:space="preserve" font-family="Rockwell-Italic,Rockwell" font-style="italic" font-size="24.0" fill="#FFFFFF" transform="matrix(1.00, 0.00, -0.00, -1.00, 531.8, 54.3)">e</text><text xml:space="preserve" font-family="Rockwell-Italic,Rockwell" font-style="italic" font-size="24.0" fill="#FFFFFF" transform="matrix(1.00, 0.00, -0.00, -1.00, 545.1, 54.3)">s</text></g></svg>