<?xml version="1.0" encoding="UTF-8" standalone="no"?><svg xmlns="http://www.w3.org/2000/svg" xmlns:xlink="http://www.w3.org/1999/xlink" clip-rule="evenodd" stroke-miterlimit="10" viewBox="0 0 960 540"><desc>SVG generated by Keynote</desc><defs></defs><g transform="matrix(1.00, 0.00, -0.00, -1.00, 0.0, 540.0)"><path d="M 0.0 540.0 L 960.0 540.0 L 960.0 0.0 L 0.0 0.0 Z M 0.0 540.0 " fill="#FFFFFF"></path><g><clipPath id="clip0x6000032ba520"><path d="M 475.0 541.0 L 949.0 541.0 L 949.0 472.0 L 475.0 472.0 Z M 475.3 540.6 "></path></clipPath><g clip-path="url(#clip0x6000032ba520)"><image xlink:href="../../12E296EB-324A-4E36-A627-C1FD5B354ABA/assets/7B0009C886B1E82F6EBAFFAEAD82C4AE.png" width="2337.00" height="797.00" transform="matrix(0.23, 0.00, -0.00, -0.23, 411.0, 655.0)"></image></g></g><image xlink:href="../../12E296EB-324A-4E36-A627-C1FD5B354ABA/assets/A6E89C778DEB5F4EAED58596AE4BA2F9.png" width="1000.00" height="400.00" transform="matrix(0.09, 0.00, -0.00, -0.09, 27.0, 43.0)"></image><image xlink:href="../../12E296EB-324A-4E36-A627-C1FD5B354ABA/assets/D7046E32D604CD756C973E818C68C492.png" width="1000.00" height="400.00" transform="matrix(0.07, 0.00, -0.00, -0.07, 851.0, 43.0)"></image><text xml:space="preserve" font-family="Arial-BoldMT,Arial" font-weight="bold" font-size="24.0" fill="#5A5D5E" transform="matrix(1.00, 0.00, -0.00, -1.00, 53.4, 491.3)">V</text><text xml:space="preserve" font-family="Arial-BoldMT,Arial" font-weight="bold" font-size="24.0" fill="#5A5D5E" transform="matrix(1.00, 0.00, -0.00, -1.00, 68.1, 491.3)">e</text><text xml:space="preserve" font-family="Arial-BoldMT,Arial" font-weight="bold" font-size="24.0" fill="#5A5D5E" transform="matrix(1.00, 0.00, -0.00, -1.00, 81.4, 491.3)">r</text><text xml:space="preserve" font-family="Arial-BoldMT,Arial" font-weight="bold" font-size="24.0" fill="#5A5D5E" transform="matrix(1.00, 0.00, -0.00, -1.00, 90.7, 491.3)">s</text><text xml:space="preserve" font-family="Arial-BoldMT,Arial" font-weight="bold" font-size="24.0" fill="#5A5D5E" transform="matrix(1.00, 0.00, -0.00, -1.00, 104.1, 491.3)">i</text><text xml:space="preserve" font-family="Arial-BoldMT,Arial" font-weight="bold" font-size="24.0" fill="#5A5D5E" transform="matrix(1.00, 0.00, -0.00, -1.00, 110.7, 491.3)">o</text><text xml:space="preserve" font-family="Arial-BoldMT,Arial" font-weight="bold" font-size="24.0" fill="#5A5D5E" transform="matrix(1.00, 0.00, -0.00, -1.00, 125.4, 491.3)">n</text><text xml:space="preserve" font-family="Arial-BoldMT,Arial" font-weight="bold" font-size="24.0" fill="#5A5D5E" transform="matrix(1.00, 0.00, -0.00, -1.00, 140.0, 491.3)">i</text><text xml:space="preserve" font-family="Arial-BoldMT,Arial" font-weight="bold" font-size="24.0" fill="#5A5D5E" transform="matrix(1.00, 0.00, -0.00, -1.00, 146.7, 491.3)">n</text><text xml:space="preserve" font-family="Arial-BoldMT,Arial" font-weight="bold" font-size="24.0" fill="#5A5D5E" transform="matrix(1.00, 0.00, -0.00, -1.00, 161.4, 491.3)">g</text><text xml:space="preserve" font-family="Calibri,Calibri" font-size="14.0" fill="#000000" transform="matrix(1.00, 0.00, -0.00, -1.00, 53.4, 410.3)">•</text><text xml:space="preserve" font-family="Calibri,Calibri" font-size="14.0" fill="#000000" transform="matrix(1.00, 0.00, -0.00, -1.00, 71.4, 410.3)">S</text><text xml:space="preserve" font-family="Calibri,Calibri" font-size="14.0" fill="#000000" transform="matrix(1.00, 0.00, -0.00, -1.00, 77.8, 410.3)">e</text><text xml:space="preserve" font-family="Calibri,Calibri" font-size="14.0" fill="#000000" transform="matrix(1.00, 0.00, -0.00, -1.00, 84.7, 410.3)">l</text><text xml:space="preserve" font-family="Calibri,Calibri" font-size="14.0" fill="#000000" transform="matrix(1.00, 0.00, -0.00, -1.00, 88.0, 410.3)">e</text><text xml:space="preserve" font-family="Calibri,Calibri" font-size="14.0" fill="#000000" transform="matrix(1.00, 0.00, -0.00, -1.00, 94.9, 410.3)">c</text><text xml:space="preserve" font-family="Calibri,Calibri" font-size="14.0" fill="#000000" transform="matrix(1.00, 0.00, -0.00, -1.00, 100.8, 410.3)">t</text><text xml:space="preserve" font-family="Calibri,Calibri" font-size="14.0" fill="#000000" transform="matrix(1.00, 0.00, -0.00, -1.00, 105.5, 410.3)">	</text><text xml:space="preserve" font-family="Calibri,Calibri" font-size="14.0" fill="#000000" transform="matrix(1.00, 0.00, -0.00, -1.00, 133.5, 410.3)"></text><text xml:space="preserve" font-family="Calibri,Calibri" font-size="14.0" fill="#000000" transform="matrix(1.00, 0.00, -0.00, -1.00, 133.5, 410.3)"> </text><text xml:space="preserve" font-family="Calibri,Calibri" font-size="14.0" fill="#000000" transform="matrix(1.00, 0.00, -0.00, -1.00, 136.7, 410.3)"> </text><text xml:space="preserve" font-family="Calibri,Calibri" font-size="14.0" fill="#000000" transform="matrix(1.00, 0.00, -0.00, -1.00, 139.9, 410.3)">a</text><text xml:space="preserve" font-family="Calibri,Calibri" font-size="14.0" fill="#000000" transform="matrix(1.00, 0.00, -0.00, -1.00, 146.6, 410.3)">	</text><text xml:space="preserve" font-family="Calibri,Calibri" font-size="14.0" fill="#000000" transform="matrix(1.00, 0.00, -0.00, -1.00, 174.6, 410.3)"></text><text xml:space="preserve" font-family="Calibri,Calibri" font-size="14.0" fill="#000000" transform="matrix(1.00, 0.00, -0.00, -1.00, 174.6, 410.3)"> </text><text xml:space="preserve" font-family="Calibri,Calibri" font-size="14.0" fill="#000000" transform="matrix(1.00, 0.00, -0.00, -1.00, 177.7, 410.3)"> </text><text xml:space="preserve" font-family="Calibri,Calibri" font-size="14.0" fill="#000000" transform="matrix(1.00, 0.00, -0.00, -1.00, 180.9, 410.3)">v</text><text xml:space="preserve" font-family="Calibri,Calibri" font-size="14.0" fill="#000000" transform="matrix(1.00, 0.00, -0.00, -1.00, 187.1, 410.3)">e</text><text xml:space="preserve" font-family="Calibri,Calibri" font-size="14.0" fill="#000000" transform="matrix(1.00, 0.00, -0.00, -1.00, 194.0, 410.3)">r</text><text xml:space="preserve" font-family="Calibri,Calibri" font-size="14.0" fill="#000000" transform="matrix(1.00, 0.00, -0.00, -1.00, 198.7, 410.3)">s</text><text xml:space="preserve" font-family="Calibri,Calibri" font-size="14.0" fill="#000000" transform="matrix(1.00, 0.00, -0.00, -1.00, 204.2, 410.3)">i</text><text xml:space="preserve" font-family="Calibri,Calibri" font-size="14.0" fill="#000000" transform="matrix(1.00, 0.00, -0.00, -1.00, 207.4, 410.3)">o</text><text xml:space="preserve" font-family="Calibri,Calibri" font-size="14.0" fill="#000000" transform="matrix(1.00, 0.00, -0.00, -1.00, 214.8, 410.3)">n</text><text xml:space="preserve" font-family="Calibri,Calibri" font-size="14.0" fill="#000000" transform="matrix(1.00, 0.00, -0.00, -1.00, 222.1, 410.3)">i</text><text xml:space="preserve" font-family="Calibri,Calibri" font-size="14.0" fill="#000000" transform="matrix(1.00, 0.00, -0.00, -1.00, 225.3, 410.3)">n</text><text xml:space="preserve" font-family="Calibri,Calibri" font-size="14.0" fill="#000000" transform="matrix(1.00, 0.00, -0.00, -1.00, 232.7, 410.3)">g</text><text xml:space="preserve" font-family="Calibri,Calibri" font-size="14.0" fill="#000000" transform="matrix(1.00, 0.00, -0.00, -1.00, 239.3, 410.3)">	</text><text xml:space="preserve" font-family="Calibri,Calibri" font-size="14.0" fill="#000000" transform="matrix(1.00, 0.00, -0.00, -1.00, 267.3, 410.3)"></text><text xml:space="preserve" font-family="Calibri,Calibri" font-size="14.0" fill="#000000" transform="matrix(1.00, 0.00, -0.00, -1.00, 267.3, 410.3)"> </text><text xml:space="preserve" font-family="Calibri,Calibri" font-size="14.0" fill="#000000" transform="matrix(1.00, 0.00, -0.00, -1.00, 270.5, 410.3)"> </text><text xml:space="preserve" font-family="Calibri,Calibri" font-size="14.0" fill="#000000" transform="matrix(1.00, 0.00, -0.00, -1.00, 273.6, 410.3)">s</text><text xml:space="preserve" font-family="Calibri,Calibri" font-size="14.0" fill="#000000" transform="matrix(1.00, 0.00, -0.00, -1.00, 278.9, 410.3)">t</text><text xml:space="preserve" font-family="Calibri,Calibri" font-size="14.0" fill="#000000" transform="matrix(1.00, 0.00, -0.00, -1.00, 283.6, 410.3)">r</text><text xml:space="preserve" font-family="Calibri,Calibri" font-size="14.0" fill="#000000" transform="matrix(1.00, 0.00, -0.00, -1.00, 288.2, 410.3)">a</text><text xml:space="preserve" font-family="Calibri,Calibri" font-size="14.0" fill="#000000" transform="matrix(1.00, 0.00, -0.00, -1.00, 294.8, 410.3)">t</text><text xml:space="preserve" font-family="Calibri,Calibri" font-size="14.0" fill="#000000" transform="matrix(1.00, 0.00, -0.00, -1.00, 299.3, 410.3)">e</text><text xml:space="preserve" font-family="Calibri,Calibri" font-size="14.0" fill="#000000" transform="matrix(1.00, 0.00, -0.00, -1.00, 306.3, 410.3)">g</text><text xml:space="preserve" font-family="Calibri,Calibri" font-size="14.0" fill="#000000" transform="matrix(1.00, 0.00, -0.00, -1.00, 312.9, 410.3)">y</text><text xml:space="preserve" font-family="Calibri,Calibri" font-size="14.0" fill="#000000" transform="matrix(1.00, 0.00, -0.00, -1.00, 319.2, 410.3)">	</text><text xml:space="preserve" font-family="Calibri,Calibri" font-size="14.0" fill="#000000" transform="matrix(1.00, 0.00, -0.00, -1.00, 347.2, 410.3)"></text><text xml:space="preserve" font-family="Calibri,Calibri" font-size="14.0" fill="#000000" transform="matrix(1.00, 0.00, -0.00, -1.00, 347.2, 410.3)"> </text><text xml:space="preserve" font-family="Calibri,Calibri" font-size="14.0" fill="#000000" transform="matrix(1.00, 0.00, -0.00, -1.00, 350.4, 410.3)"> </text><text xml:space="preserve" font-family="Calibri,Calibri" font-size="14.0" fill="#000000" transform="matrix(1.00, 0.00, -0.00, -1.00, 353.5, 410.3)">s</text><text xml:space="preserve" font-family="Calibri,Calibri" font-size="14.0" fill="#000000" transform="matrix(1.00, 0.00, -0.00, -1.00, 359.0, 410.3)">o</text><text xml:space="preserve" font-family="Calibri,Calibri" font-size="14.0" fill="#000000" transform="matrix(1.00, 0.00, -0.00, -1.00, 366.4, 410.3)">	</text><text xml:space="preserve" font-family="Calibri,Calibri" font-size="14.0" fill="#000000" transform="matrix(1.00, 0.00, -0.00, -1.00, 394.4, 410.3)"></text><text xml:space="preserve" font-family="Calibri,Calibri" font-size="14.0" fill="#000000" transform="matrix(1.00, 0.00, -0.00, -1.00, 394.4, 410.3)"> </text><text xml:space="preserve" font-family="Calibri,Calibri" font-size="14.0" fill="#000000" transform="matrix(1.00, 0.00, -0.00, -1.00, 397.6, 410.3)"> </text><text xml:space="preserve" font-family="Calibri,Calibri" font-size="14.0" fill="#000000" transform="matrix(1.00, 0.00, -0.00, -1.00, 400.7, 410.3)">y</text><text xml:space="preserve" font-family="Calibri,Calibri" font-size="14.0" fill="#000000" transform="matrix(1.00, 0.00, -0.00, -1.00, 406.9, 410.3)">o</text><text xml:space="preserve" font-family="Calibri,Calibri" font-size="14.0" fill="#000000" transform="matrix(1.00, 0.00, -0.00, -1.00, 414.3, 410.3)">u</text><text xml:space="preserve" font-family="Calibri,Calibri" font-size="14.0" fill="#000000" transform="matrix(1.00, 0.00, -0.00, -1.00, 421.7, 410.3)">	</text><text xml:space="preserve" font-family="Calibri,Calibri" font-size="14.0" fill="#000000" transform="matrix(1.00, 0.00, -0.00, -1.00, 449.7, 410.3)"></text><text xml:space="preserve" font-family="Calibri,Calibri" font-size="14.0" fill="#000000" transform="matrix(1.00, 0.00, -0.00, -1.00, 449.7, 410.3)"> </text><text xml:space="preserve" font-family="Calibri,Calibri" font-size="14.0" fill="#000000" transform="matrix(1.00, 0.00, -0.00, -1.00, 452.8, 410.3)"> </text><text xml:space="preserve" font-family="Calibri,Calibri" font-size="14.0" fill="#000000" transform="matrix(1.00, 0.00, -0.00, -1.00, 456.0, 410.3)">c</text><text xml:space="preserve" font-family="Calibri,Calibri" font-size="14.0" fill="#000000" transform="matrix(1.00, 0.00, -0.00, -1.00, 461.8, 410.3)">a</text><text xml:space="preserve" font-family="Calibri,Calibri" font-size="14.0" fill="#000000" transform="matrix(1.00, 0.00, -0.00, -1.00, 468.5, 410.3)">n</text><text xml:space="preserve" font-family="Calibri,Calibri" font-size="14.0" fill="#000000" transform="matrix(1.00, 0.00, -0.00, -1.00, 475.9, 410.3)">	</text><text xml:space="preserve" font-family="Calibri,Calibri" font-size="14.0" fill="#000000" transform="matrix(1.00, 0.00, -0.00, -1.00, 503.9, 410.3)"></text><text xml:space="preserve" font-family="Calibri,Calibri" font-size="14.0" fill="#000000" transform="matrix(1.00, 0.00, -0.00, -1.00, 503.9, 410.3)"> </text><text xml:space="preserve" font-family="Calibri,Calibri" font-size="14.0" fill="#000000" transform="matrix(1.00, 0.00, -0.00, -1.00, 507.0, 410.3)"> </text><text xml:space="preserve" font-family="Calibri,Calibri" font-size="14.0" fill="#000000" transform="matrix(1.00, 0.00, -0.00, -1.00, 510.2, 410.3)">m</text><text xml:space="preserve" font-family="Calibri,Calibri" font-size="14.0" fill="#000000" transform="matrix(1.00, 0.00, -0.00, -1.00, 521.4, 410.3)">a</text><text xml:space="preserve" font-family="Calibri,Calibri" font-size="14.0" fill="#000000" transform="matrix(1.00, 0.00, -0.00, -1.00, 528.1, 410.3)">k</text><text xml:space="preserve" font-family="Calibri,Calibri" font-size="14.0" fill="#000000" transform="matrix(1.00, 0.00, -0.00, -1.00, 534.0, 410.3)">e</text><text xml:space="preserve" font-family="Calibri,Calibri" font-size="14.0" fill="#000000" transform="matrix(1.00, 0.00, -0.00, -1.00, 540.9, 410.3)">	</text><text xml:space="preserve" font-family="Calibri,Calibri" font-size="14.0" fill="#000000" transform="matrix(1.00, 0.00, -0.00, -1.00, 568.9, 410.3)"></text><text xml:space="preserve" font-family="Calibri,Calibri" font-size="14.0" fill="#000000" transform="matrix(1.00, 0.00, -0.00, -1.00, 568.9, 410.3)"> </text><text xml:space="preserve" font-family="Calibri,Calibri" font-size="14.0" fill="#000000" transform="matrix(1.00, 0.00, -0.00, -1.00, 572.1, 410.3)"> </text><text xml:space="preserve" font-family="Calibri,Calibri" font-size="14.0" fill="#000000" transform="matrix(1.00, 0.00, -0.00, -1.00, 575.3, 410.3)">c</text><text xml:space="preserve" font-family="Calibri,Calibri" font-size="14.0" fill="#000000" transform="matrix(1.00, 0.00, -0.00, -1.00, 581.2, 410.3)">h</text><text xml:space="preserve" font-family="Calibri,Calibri" font-size="14.0" fill="#000000" transform="matrix(1.00, 0.00, -0.00, -1.00, 588.6, 410.3)">a</text><text xml:space="preserve" font-family="Calibri,Calibri" font-size="14.0" fill="#000000" transform="matrix(1.00, 0.00, -0.00, -1.00, 595.3, 410.3)">n</text><text xml:space="preserve" font-family="Calibri,Calibri" font-size="14.0" fill="#000000" transform="matrix(1.00, 0.00, -0.00, -1.00, 602.6, 410.3)">g</text><text xml:space="preserve" font-family="Calibri,Calibri" font-size="14.0" fill="#000000" transform="matrix(1.00, 0.00, -0.00, -1.00, 609.1, 410.3)">e</text><text xml:space="preserve" font-family="Calibri,Calibri" font-size="14.0" fill="#000000" transform="matrix(1.00, 0.00, -0.00, -1.00, 616.1, 410.3)">s</text><text xml:space="preserve" font-family="Calibri,Calibri" font-size="14.0" fill="#000000" transform="matrix(1.00, 0.00, -0.00, -1.00, 621.5, 410.3)">	</text><text xml:space="preserve" font-family="Calibri,Calibri" font-size="14.0" fill="#000000" transform="matrix(1.00, 0.00, -0.00, -1.00, 649.5, 410.3)"></text><text xml:space="preserve" font-family="Calibri,Calibri" font-size="14.0" fill="#000000" transform="matrix(1.00, 0.00, -0.00, -1.00, 649.5, 410.3)"> </text><text xml:space="preserve" font-family="Calibri,Calibri" font-size="14.0" fill="#000000" transform="matrix(1.00, 0.00, -0.00, -1.00, 652.7, 410.3)"> </text><text xml:space="preserve" font-family="Calibri,Calibri" font-size="14.0" fill="#000000" transform="matrix(1.00, 0.00, -0.00, -1.00, 655.9, 410.3)">i</text><text xml:space="preserve" font-family="Calibri,Calibri" font-size="14.0" fill="#000000" transform="matrix(1.00, 0.00, -0.00, -1.00, 659.1, 410.3)">n</text><text xml:space="preserve" font-family="Calibri,Calibri" font-size="14.0" fill="#000000" transform="matrix(1.00, 0.00, -0.00, -1.00, 666.4, 410.3)">	</text><text xml:space="preserve" font-family="Calibri,Calibri" font-size="14.0" fill="#000000" transform="matrix(1.00, 0.00, -0.00, -1.00, 694.4, 410.3)"></text><text xml:space="preserve" font-family="Calibri,Calibri" font-size="14.0" fill="#000000" transform="matrix(1.00, 0.00, -0.00, -1.00, 694.4, 410.3)"> </text><text xml:space="preserve" font-family="Calibri,Calibri" font-size="14.0" fill="#000000" transform="matrix(1.00, 0.00, -0.00, -1.00, 697.6, 410.3)"> </text><text xml:space="preserve" font-family="Calibri,Calibri" font-size="14.0" fill="#000000" transform="matrix(1.00, 0.00, -0.00, -1.00, 700.8, 410.3)">t</text><text xml:space="preserve" font-family="Calibri,Calibri" font-size="14.0" fill="#000000" transform="matrix(1.00, 0.00, -0.00, -1.00, 705.5, 410.3)">h</text><text xml:space="preserve" font-family="Calibri,Calibri" font-size="14.0" fill="#000000" transform="matrix(1.00, 0.00, -0.00, -1.00, 712.8, 410.3)">e</text><text xml:space="preserve" font-family="Calibri,Calibri" font-size="14.0" fill="#000000" transform="matrix(1.00, 0.00, -0.00, -1.00, 719.8, 410.3)">	</text><text xml:space="preserve" font-family="Calibri,Calibri" font-size="14.0" fill="#000000" transform="matrix(1.00, 0.00, -0.00, -1.00, 747.8, 410.3)"></text><text xml:space="preserve" font-family="Calibri,Calibri" font-size="14.0" fill="#000000" transform="matrix(1.00, 0.00, -0.00, -1.00, 747.8, 410.3)"> </text><text xml:space="preserve" font-family="Calibri,Calibri" font-size="14.0" fill="#000000" transform="matrix(1.00, 0.00, -0.00, -1.00, 751.0, 410.3)"> </text><text xml:space="preserve" font-family="Calibri,Calibri" font-size="14.0" fill="#000000" transform="matrix(1.00, 0.00, -0.00, -1.00, 754.1, 410.3)">f</text><text xml:space="preserve" font-family="Calibri,Calibri" font-size="14.0" fill="#000000" transform="matrix(1.00, 0.00, -0.00, -1.00, 758.4, 410.3)">u</text><text xml:space="preserve" font-family="Calibri,Calibri" font-size="14.0" fill="#000000" transform="matrix(1.00, 0.00, -0.00, -1.00, 765.8, 410.3)">t</text><text xml:space="preserve" font-family="Calibri,Calibri" font-size="14.0" fill="#000000" transform="matrix(1.00, 0.00, -0.00, -1.00, 770.4, 410.3)">u</text><text xml:space="preserve" font-family="Calibri,Calibri" font-size="14.0" fill="#000000" transform="matrix(1.00, 0.00, -0.00, -1.00, 777.8, 410.3)">r</text><text xml:space="preserve" font-family="Calibri,Calibri" font-size="14.0" fill="#000000" transform="matrix(1.00, 0.00, -0.00, -1.00, 782.5, 410.3)">e</text><text xml:space="preserve" font-family="Calibri,Calibri" font-size="14.0" fill="#000000" transform="matrix(1.00, 0.00, -0.00, -1.00, 789.5, 410.3)">	</text><text xml:space="preserve" font-family="Calibri,Calibri" font-size="14.0" fill="#000000" transform="matrix(1.00, 0.00, -0.00, -1.00, 817.5, 410.3)"></text><text xml:space="preserve" font-family="Calibri,Calibri" font-size="14.0" fill="#000000" transform="matrix(1.00, 0.00, -0.00, -1.00, 817.5, 410.3)"> </text><text xml:space="preserve" font-family="Calibri,Calibri" font-size="14.0" fill="#000000" transform="matrix(1.00, 0.00, -0.00, -1.00, 820.6, 410.3)"> </text><text xml:space="preserve" font-family="Calibri,Calibri" font-size="14.0" fill="#000000" transform="matrix(1.00, 0.00, -0.00, -1.00, 71.4, 393.3)">•</text><text xml:space="preserve" font-family="Calibri,Calibri" font-size="14.0" fill="#000000" transform="matrix(1.00, 0.00, -0.00, -1.00, 89.4, 393.3)">C</text><text xml:space="preserve" font-family="Calibri,Calibri" font-size="14.0" fill="#000000" transform="matrix(1.00, 0.00, -0.00, -1.00, 96.8, 393.3)">o</text><text xml:space="preserve" font-family="Calibri,Calibri" font-size="14.0" fill="#000000" transform="matrix(1.00, 0.00, -0.00, -1.00, 104.2, 393.3)">m</text><text xml:space="preserve" font-family="Calibri,Calibri" font-size="14.0" fill="#000000" transform="matrix(1.00, 0.00, -0.00, -1.00, 115.4, 393.3)">m</text><text xml:space="preserve" font-family="Calibri,Calibri" font-size="14.0" fill="#000000" transform="matrix(1.00, 0.00, -0.00, -1.00, 126.6, 393.3)">o</text><text xml:space="preserve" font-family="Calibri,Calibri" font-size="14.0" fill="#000000" transform="matrix(1.00, 0.00, -0.00, -1.00, 134.0, 393.3)">n</text><text xml:space="preserve" font-family="Calibri,Calibri" font-size="14.0" fill="#000000" transform="matrix(1.00, 0.00, -0.00, -1.00, 141.3, 393.3)">	</text><text xml:space="preserve" font-family="Calibri,Calibri" font-size="14.0" fill="#000000" transform="matrix(1.00, 0.00, -0.00, -1.00, 169.3, 393.3)"></text><text xml:space="preserve" font-family="Calibri,Calibri" font-size="14.0" fill="#000000" transform="matrix(1.00, 0.00, -0.00, -1.00, 169.3, 393.3)"> </text><text xml:space="preserve" font-family="Calibri,Calibri" font-size="14.0" fill="#000000" transform="matrix(1.00, 0.00, -0.00, -1.00, 172.5, 393.3)"> </text><text xml:space="preserve" font-family="Calibri,Calibri" font-size="14.0" fill="#000000" transform="matrix(1.00, 0.00, -0.00, -1.00, 175.6, 393.3)">s</text><text xml:space="preserve" font-family="Calibri,Calibri" font-size="14.0" fill="#000000" transform="matrix(1.00, 0.00, -0.00, -1.00, 181.0, 393.3)">t</text><text xml:space="preserve" font-family="Calibri,Calibri" font-size="14.0" fill="#000000" transform="matrix(1.00, 0.00, -0.00, -1.00, 185.7, 393.3)">r</text><text xml:space="preserve" font-family="Calibri,Calibri" font-size="14.0" fill="#000000" transform="matrix(1.00, 0.00, -0.00, -1.00, 190.2, 393.3)">a</text><text xml:space="preserve" font-family="Calibri,Calibri" font-size="14.0" fill="#000000" transform="matrix(1.00, 0.00, -0.00, -1.00, 196.8, 393.3)">t</text><text xml:space="preserve" font-family="Calibri,Calibri" font-size="14.0" fill="#000000" transform="matrix(1.00, 0.00, -0.00, -1.00, 201.4, 393.3)">e</text><text xml:space="preserve" font-family="Calibri,Calibri" font-size="14.0" fill="#000000" transform="matrix(1.00, 0.00, -0.00, -1.00, 208.3, 393.3)">g</text><text xml:space="preserve" font-family="Calibri,Calibri" font-size="14.0" fill="#000000" transform="matrix(1.00, 0.00, -0.00, -1.00, 214.9, 393.3)">i</text><text xml:space="preserve" font-family="Calibri,Calibri" font-size="14.0" fill="#000000" transform="matrix(1.00, 0.00, -0.00, -1.00, 218.1, 393.3)">e</text><text xml:space="preserve" font-family="Calibri,Calibri" font-size="14.0" fill="#000000" transform="matrix(1.00, 0.00, -0.00, -1.00, 225.1, 393.3)">s</text><text xml:space="preserve" font-family="Calibri,Calibri" font-size="14.0" fill="#000000" transform="matrix(1.00, 0.00, -0.00, -1.00, 230.6, 393.3)">:</text><text xml:space="preserve" font-family="Calibri,Calibri" font-size="14.0" fill="#000000" transform="matrix(1.00, 0.00, -0.00, -1.00, 234.3, 393.3)">	</text><text xml:space="preserve" font-family="Calibri,Calibri" font-size="14.0" fill="#000000" transform="matrix(1.00, 0.00, -0.00, -1.00, 262.3, 393.3)"></text><text xml:space="preserve" font-family="Calibri,Calibri" font-size="14.0" fill="#000000" transform="matrix(1.00, 0.00, -0.00, -1.00, 262.3, 393.3)"> </text><text xml:space="preserve" font-family="Calibri,Calibri" font-size="14.0" fill="#000000" transform="matrix(1.00, 0.00, -0.00, -1.00, 265.5, 393.3)"> </text><text xml:space="preserve" font-family="Calibri,Calibri" font-size="14.0" fill="#000000" transform="matrix(1.00, 0.00, -0.00, -1.00, 268.6, 393.3)">h</text><text xml:space="preserve" font-family="Calibri,Calibri" font-size="14.0" fill="#000000" transform="matrix(1.00, 0.00, -0.00, -1.00, 276.0, 393.3)">e</text><text xml:space="preserve" font-family="Calibri,Calibri" font-size="14.0" fill="#000000" transform="matrix(1.00, 0.00, -0.00, -1.00, 283.0, 393.3)">a</text><text xml:space="preserve" font-family="Calibri,Calibri" font-size="14.0" fill="#000000" transform="matrix(1.00, 0.00, -0.00, -1.00, 289.7, 393.3)">d</text><text xml:space="preserve" font-family="Calibri,Calibri" font-size="14.0" fill="#000000" transform="matrix(1.00, 0.00, -0.00, -1.00, 297.0, 393.3)">e</text><text xml:space="preserve" font-family="Calibri,Calibri" font-size="14.0" fill="#000000" transform="matrix(1.00, 0.00, -0.00, -1.00, 304.0, 393.3)">r</text><text xml:space="preserve" font-family="Calibri,Calibri" font-size="14.0" fill="#000000" transform="matrix(1.00, 0.00, -0.00, -1.00, 307.7, 393.3)">,</text><text xml:space="preserve" font-family="Calibri,Calibri" font-size="14.0" fill="#000000" transform="matrix(1.00, 0.00, -0.00, -1.00, 311.1, 393.3)">	</text><text xml:space="preserve" font-family="Calibri,Calibri" font-size="14.0" fill="#000000" transform="matrix(1.00, 0.00, -0.00, -1.00, 339.1, 393.3)"></text><text xml:space="preserve" font-family="Calibri,Calibri" font-size="14.0" fill="#000000" transform="matrix(1.00, 0.00, -0.00, -1.00, 339.1, 393.3)"> </text><text xml:space="preserve" font-family="Calibri,Calibri" font-size="14.0" fill="#000000" transform="matrix(1.00, 0.00, -0.00, -1.00, 342.3, 393.3)"> </text><text xml:space="preserve" font-family="Calibri,Calibri" font-size="14.0" fill="#000000" transform="matrix(1.00, 0.00, -0.00, -1.00, 345.5, 393.3)">p</text><text xml:space="preserve" font-family="Calibri,Calibri" font-size="14.0" fill="#000000" transform="matrix(1.00, 0.00, -0.00, -1.00, 352.8, 393.3)">a</text><text xml:space="preserve" font-family="Calibri,Calibri" font-size="14.0" fill="#000000" transform="matrix(1.00, 0.00, -0.00, -1.00, 359.4, 393.3)">t</text><text xml:space="preserve" font-family="Calibri,Calibri" font-size="14.0" fill="#000000" transform="matrix(1.00, 0.00, -0.00, -1.00, 364.1, 393.3)">h</text><text xml:space="preserve" font-family="Calibri,Calibri" font-size="14.0" fill="#000000" transform="matrix(1.00, 0.00, -0.00, -1.00, 371.5, 393.3)">	</text><text xml:space="preserve" font-family="Calibri,Calibri" font-size="14.0" fill="#000000" transform="matrix(1.00, 0.00, -0.00, -1.00, 399.5, 393.3)"></text><text xml:space="preserve" font-family="Calibri,Calibri" font-size="14.0" fill="#000000" transform="matrix(1.00, 0.00, -0.00, -1.00, 399.5, 393.3)"> </text><text xml:space="preserve" font-family="Calibri,Calibri" font-size="14.0" fill="#000000" transform="matrix(1.00, 0.00, -0.00, -1.00, 402.6, 393.3)"> </text><text xml:space="preserve" font-family="Calibri,Calibri" font-size="14.0" fill="#000000" transform="matrix(1.00, 0.00, -0.00, -1.00, 405.8, 393.3)">a</text><text xml:space="preserve" font-family="Calibri,Calibri" font-size="14.0" fill="#000000" transform="matrix(1.00, 0.00, -0.00, -1.00, 412.5, 393.3)">n</text><text xml:space="preserve" font-family="Calibri,Calibri" font-size="14.0" fill="#000000" transform="matrix(1.00, 0.00, -0.00, -1.00, 419.9, 393.3)">d</text><text xml:space="preserve" font-family="Calibri,Calibri" font-size="14.0" fill="#000000" transform="matrix(1.00, 0.00, -0.00, -1.00, 427.2, 393.3)">	</text><text xml:space="preserve" font-family="Calibri,Calibri" font-size="14.0" fill="#000000" transform="matrix(1.00, 0.00, -0.00, -1.00, 455.2, 393.3)"></text><text xml:space="preserve" font-family="Calibri,Calibri" font-size="14.0" fill="#000000" transform="matrix(1.00, 0.00, -0.00, -1.00, 455.2, 393.3)"> </text><text xml:space="preserve" font-family="Calibri,Calibri" font-size="14.0" fill="#000000" transform="matrix(1.00, 0.00, -0.00, -1.00, 458.4, 393.3)"> </text><text xml:space="preserve" font-family="Calibri,Calibri" font-size="14.0" fill="#000000" transform="matrix(1.00, 0.00, -0.00, -1.00, 305.7, 393.3)">r</text><text xml:space="preserve" font-family="Calibri,Calibri" font-size="14.0" fill="#000000" transform="matrix(1.00, 0.00, -0.00, -1.00, 310.4, 393.3)">e</text><text xml:space="preserve" font-family="Calibri,Calibri" font-size="14.0" fill="#000000" transform="matrix(1.00, 0.00, -0.00, -1.00, 317.4, 393.3)">q</text><text xml:space="preserve" font-family="Calibri,Calibri" font-size="14.0" fill="#000000" transform="matrix(1.00, 0.00, -0.00, -1.00, 324.7, 393.3)">u</text><text xml:space="preserve" font-family="Calibri,Calibri" font-size="14.0" fill="#000000" transform="matrix(1.00, 0.00, -0.00, -1.00, 332.1, 393.3)">e</text><text xml:space="preserve" font-family="Calibri,Calibri" font-size="14.0" fill="#000000" transform="matrix(1.00, 0.00, -0.00, -1.00, 339.0, 393.3)">s</text><text xml:space="preserve" font-family="Calibri,Calibri" font-size="14.0" fill="#000000" transform="matrix(1.00, 0.00, -0.00, -1.00, 344.4, 393.3)">t</text><text xml:space="preserve" font-family="Calibri,Calibri" font-size="14.0" fill="#000000" transform="matrix(1.00, 0.00, -0.00, -1.00, 349.1, 393.3)">	</text><text xml:space="preserve" font-family="Calibri,Calibri" font-size="14.0" fill="#000000" transform="matrix(1.00, 0.00, -0.00, -1.00, 377.1, 393.3)"></text><text xml:space="preserve" font-family="Calibri,Calibri" font-size="14.0" fill="#000000" transform="matrix(1.00, 0.00, -0.00, -1.00, 377.1, 393.3)"> </text><text xml:space="preserve" font-family="Calibri,Calibri" font-size="14.0" fill="#000000" transform="matrix(1.00, 0.00, -0.00, -1.00, 380.2, 393.3)"> </text><text xml:space="preserve" font-family="Calibri,Calibri" font-size="14.0" fill="#000000" transform="matrix(1.00, 0.00, -0.00, -1.00, 383.4, 393.3)">p</text><text xml:space="preserve" font-family="Calibri,Calibri" font-size="14.0" fill="#000000" transform="matrix(1.00, 0.00, -0.00, -1.00, 390.7, 393.3)">a</text><text xml:space="preserve" font-family="Calibri,Calibri" font-size="14.0" fill="#000000" transform="matrix(1.00, 0.00, -0.00, -1.00, 397.5, 393.3)">r</text><text xml:space="preserve" font-family="Calibri,Calibri" font-size="14.0" fill="#000000" transform="matrix(1.00, 0.00, -0.00, -1.00, 402.0, 393.3)">a</text><text xml:space="preserve" font-family="Calibri,Calibri" font-size="14.0" fill="#000000" transform="matrix(1.00, 0.00, -0.00, -1.00, 408.7, 393.3)">m</text><text xml:space="preserve" font-family="Calibri,Calibri" font-size="14.0" fill="#000000" transform="matrix(1.00, 0.00, -0.00, -1.00, 419.9, 393.3)">e</text><text xml:space="preserve" font-family="Calibri,Calibri" font-size="14.0" fill="#000000" transform="matrix(1.00, 0.00, -0.00, -1.00, 426.8, 393.3)">t</text><text xml:space="preserve" font-family="Calibri,Calibri" font-size="14.0" fill="#000000" transform="matrix(1.00, 0.00, -0.00, -1.00, 431.4, 393.3)">e</text><text xml:space="preserve" font-family="Calibri,Calibri" font-size="14.0" fill="#000000" transform="matrix(1.00, 0.00, -0.00, -1.00, 438.3, 393.3)">r</text></g></svg>