<?xml version="1.0" encoding="UTF-8" standalone="no"?><svg xmlns="http://www.w3.org/2000/svg" xmlns:xlink="http://www.w3.org/1999/xlink" clip-rule="evenodd" stroke-miterlimit="10" viewBox="0 0 960 540"><desc>SVG generated by Keynote</desc><defs></defs><g transform="matrix(1.00, 0.00, -0.00, -1.00, 0.0, 540.0)"><path d="M 0.0 540.0 L 960.0 540.0 L 960.0 0.0 L 0.0 0.0 Z M 0.0 540.0 " fill="#FFFFFF"></path><g><clipPath id="clip0x610000ebd8e0"><path d="M 475.0 541.0 L 949.0 541.0 L 949.0 472.0 L 475.0 472.0 Z M 475.3 540.6 "></path></clipPath><g clip-path="url(#clip0x610000ebd8e0)"><image xlink:href="../../12E296EB-324A-4E36-A627-C1FD5B354ABA/assets/7B0009C886B1E82F6EBAFFAEAD82C4AE.png" width="2337.00" height="797.00" transform="matrix(0.23, 0.00, -0.00, -0.23, 411.0, 655.0)"></image></g></g><image xlink:href="../../12E296EB-324A-4E36-A627-C1FD5B354ABA/assets/A6E89C778DEB5F4EAED58596AE4BA2F9.png" width="1000.00" height="400.00" transform="matrix(0.09, 0.00, -0.00, -0.09, 27.0, 43.0)"></image><image xlink:href="../../12E296EB-324A-4E36-A627-C1FD5B354ABA/assets/D7046E32D604CD756C973E818C68C492.png" width="1000.00" height="400.00" transform="matrix(0.07, 0.00, -0.00, -0.07, 851.0, 43.0)"></image><text xml:space="preserve" font-family="Arial-BoldMT,Arial" font-weight="bold" font-size="24.0" fill="#5A5D5E" transform="matrix(1.00, 0.00, -0.00, -1.00, 53.4, 491.3)">S</text><text xml:space="preserve" font-family="Arial-BoldMT,Arial" font-weight="bold" font-size="24.0" fill="#5A5D5E" transform="matrix(1.00, 0.00, -0.00, -1.00, 69.4, 491.3)">a</text><text xml:space="preserve" font-family="Arial-BoldMT,Arial" font-weight="bold" font-size="24.0" fill="#5A5D5E" transform="matrix(1.00, 0.00, -0.00, -1.00, 82.7, 491.3)">n</text><text xml:space="preserve" font-family="Arial-BoldMT,Arial" font-weight="bold" font-size="24.0" fill="#5A5D5E" transform="matrix(1.00, 0.00, -0.00, -1.00, 97.4, 491.3)">d</text><text xml:space="preserve" font-family="Arial-BoldMT,Arial" font-weight="bold" font-size="24.0" fill="#5A5D5E" transform="matrix(1.00, 0.00, -0.00, -1.00, 112.0, 491.3)">b</text><text xml:space="preserve" font-family="Arial-BoldMT,Arial" font-weight="bold" font-size="24.0" fill="#5A5D5E" transform="matrix(1.00, 0.00, -0.00, -1.00, 126.7, 491.3)">o</text><text xml:space="preserve" font-family="Arial-BoldMT,Arial" font-weight="bold" font-size="24.0" fill="#5A5D5E" transform="matrix(1.00, 0.00, -0.00, -1.00, 141.4, 491.3)">x</text><text xml:space="preserve" font-family="Arial-BoldMT,Arial" font-weight="bold" font-size="24.0" fill="#5A5D5E" transform="matrix(1.00, 0.00, -0.00, -1.00, 154.7, 491.3)">i</text><text xml:space="preserve" font-family="Arial-BoldMT,Arial" font-weight="bold" font-size="24.0" fill="#5A5D5E" transform="matrix(1.00, 0.00, -0.00, -1.00, 161.4, 491.3)">n</text><text xml:space="preserve" font-family="Arial-BoldMT,Arial" font-weight="bold" font-size="24.0" fill="#5A5D5E" transform="matrix(1.00, 0.00, -0.00, -1.00, 176.0, 491.3)">g</text><text xml:space="preserve" font-family="ArialMT,Arial" font-size="14.0" fill="#5A5D5E" transform="matrix(1.00, 0.00, -0.00, -1.00, 53.4, 411.0)">C</text><text xml:space="preserve" font-family="ArialMT,Arial" font-size="14.0" fill="#5A5D5E" transform="matrix(1.00, 0.00, -0.00, -1.00, 63.5, 411.0)">r</text><text xml:space="preserve" font-family="ArialMT,Arial" font-size="14.0" fill="#5A5D5E" transform="matrix(1.00, 0.00, -0.00, -1.00, 68.1, 411.0)">e</text><text xml:space="preserve" font-family="ArialMT,Arial" font-size="14.0" fill="#5A5D5E" transform="matrix(1.00, 0.00, -0.00, -1.00, 75.9, 411.0)">a</text><text xml:space="preserve" font-family="ArialMT,Arial" font-size="14.0" fill="#5A5D5E" transform="matrix(1.00, 0.00, -0.00, -1.00, 83.7, 411.0)">t</text><text xml:space="preserve" font-family="ArialMT,Arial" font-size="14.0" fill="#5A5D5E" transform="matrix(1.00, 0.00, -0.00, -1.00, 87.6, 411.0)">e</text><text xml:space="preserve" font-family="ArialMT,Arial" font-size="14.0" fill="#5A5D5E" transform="matrix(1.00, 0.00, -0.00, -1.00, 95.4, 411.0)"> </text><text xml:space="preserve" font-family="ArialMT,Arial" font-size="14.0" fill="#5A5D5E" transform="matrix(1.00, 0.00, -0.00, -1.00, 99.3, 411.0)">a</text><text xml:space="preserve" font-family="ArialMT,Arial" font-size="14.0" fill="#5A5D5E" transform="matrix(1.00, 0.00, -0.00, -1.00, 107.1, 411.0)">n</text><text xml:space="preserve" font-family="ArialMT,Arial" font-size="14.0" fill="#5A5D5E" transform="matrix(1.00, 0.00, -0.00, -1.00, 114.8, 411.0)"> </text><text xml:space="preserve" font-family="ArialMT,Arial" font-size="14.0" fill="#5A5D5E" transform="matrix(1.00, 0.00, -0.00, -1.00, 118.7, 411.0)">e</text><text xml:space="preserve" font-family="ArialMT,Arial" font-size="14.0" fill="#5A5D5E" transform="matrix(1.00, 0.00, -0.00, -1.00, 126.5, 411.0)">n</text><text xml:space="preserve" font-family="ArialMT,Arial" font-size="14.0" fill="#5A5D5E" transform="matrix(1.00, 0.00, -0.00, -1.00, 134.3, 411.0)">v</text><text xml:space="preserve" font-family="ArialMT,Arial" font-size="14.0" fill="#5A5D5E" transform="matrix(1.00, 0.00, -0.00, -1.00, 141.3, 411.0)">i</text><text xml:space="preserve" font-family="ArialMT,Arial" font-size="14.0" fill="#5A5D5E" transform="matrix(1.00, 0.00, -0.00, -1.00, 144.4, 411.0)">r</text><text xml:space="preserve" font-family="ArialMT,Arial" font-size="14.0" fill="#5A5D5E" transform="matrix(1.00, 0.00, -0.00, -1.00, 149.1, 411.0)">o</text><text xml:space="preserve" font-family="ArialMT,Arial" font-size="14.0" fill="#5A5D5E" transform="matrix(1.00, 0.00, -0.00, -1.00, 156.9, 411.0)">n</text><text xml:space="preserve" font-family="ArialMT,Arial" font-size="14.0" fill="#5A5D5E" transform="matrix(1.00, 0.00, -0.00, -1.00, 164.7, 411.0)">m</text><text xml:space="preserve" font-family="ArialMT,Arial" font-size="14.0" fill="#5A5D5E" transform="matrix(1.00, 0.00, -0.00, -1.00, 176.3, 411.0)">e</text><text xml:space="preserve" font-family="ArialMT,Arial" font-size="14.0" fill="#5A5D5E" transform="matrix(1.00, 0.00, -0.00, -1.00, 184.1, 411.0)">n</text><text xml:space="preserve" font-family="ArialMT,Arial" font-size="14.0" fill="#5A5D5E" transform="matrix(1.00, 0.00, -0.00, -1.00, 191.9, 411.0)">t</text><text xml:space="preserve" font-family="ArialMT,Arial" font-size="14.0" fill="#5A5D5E" transform="matrix(1.00, 0.00, -0.00, -1.00, 195.8, 411.0)"> </text><text xml:space="preserve" font-family="ArialMT,Arial" font-size="14.0" fill="#5A5D5E" transform="matrix(1.00, 0.00, -0.00, -1.00, 199.7, 411.0)">t</text><text xml:space="preserve" font-family="ArialMT,Arial" font-size="14.0" fill="#5A5D5E" transform="matrix(1.00, 0.00, -0.00, -1.00, 203.6, 411.0)">h</text><text xml:space="preserve" font-family="ArialMT,Arial" font-size="14.0" fill="#5A5D5E" transform="matrix(1.00, 0.00, -0.00, -1.00, 211.4, 411.0)">a</text><text xml:space="preserve" font-family="ArialMT,Arial" font-size="14.0" fill="#5A5D5E" transform="matrix(1.00, 0.00, -0.00, -1.00, 219.1, 411.0)">t</text><text xml:space="preserve" font-family="ArialMT,Arial" font-size="14.0" fill="#5A5D5E" transform="matrix(1.00, 0.00, -0.00, -1.00, 223.0, 411.0)"> </text><text xml:space="preserve" font-family="ArialMT,Arial" font-size="14.0" fill="#5A5D5E" transform="matrix(1.00, 0.00, -0.00, -1.00, 226.9, 411.0)">y</text><text xml:space="preserve" font-family="ArialMT,Arial" font-size="14.0" fill="#5A5D5E" transform="matrix(1.00, 0.00, -0.00, -1.00, 233.9, 411.0)">o</text><text xml:space="preserve" font-family="ArialMT,Arial" font-size="14.0" fill="#5A5D5E" transform="matrix(1.00, 0.00, -0.00, -1.00, 241.7, 411.0)">u</text><text xml:space="preserve" font-family="ArialMT,Arial" font-size="14.0" fill="#5A5D5E" transform="matrix(1.00, 0.00, -0.00, -1.00, 249.5, 411.0)">r</text><text xml:space="preserve" font-family="ArialMT,Arial" font-size="14.0" fill="#5A5D5E" transform="matrix(1.00, 0.00, -0.00, -1.00, 254.2, 411.0)"> </text><text xml:space="preserve" font-family="ArialMT,Arial" font-size="14.0" fill="#5A5D5E" transform="matrix(1.00, 0.00, -0.00, -1.00, 258.0, 411.0)">u</text><text xml:space="preserve" font-family="ArialMT,Arial" font-size="14.0" fill="#5A5D5E" transform="matrix(1.00, 0.00, -0.00, -1.00, 265.8, 411.0)">s</text><text xml:space="preserve" font-family="ArialMT,Arial" font-size="14.0" fill="#5A5D5E" transform="matrix(1.00, 0.00, -0.00, -1.00, 272.8, 411.0)">e</text><text xml:space="preserve" font-family="ArialMT,Arial" font-size="14.0" fill="#5A5D5E" transform="matrix(1.00, 0.00, -0.00, -1.00, 280.6, 411.0)">r</text><text xml:space="preserve" font-family="ArialMT,Arial" font-size="14.0" fill="#5A5D5E" transform="matrix(1.00, 0.00, -0.00, -1.00, 285.3, 411.0)">s</text><text xml:space="preserve" font-family="ArialMT,Arial" font-size="14.0" fill="#5A5D5E" transform="matrix(1.00, 0.00, -0.00, -1.00, 292.3, 411.0)"> </text><text xml:space="preserve" font-family="ArialMT,Arial" font-size="14.0" fill="#5A5D5E" transform="matrix(1.00, 0.00, -0.00, -1.00, 296.2, 411.0)">c</text><text xml:space="preserve" font-family="ArialMT,Arial" font-size="14.0" fill="#5A5D5E" transform="matrix(1.00, 0.00, -0.00, -1.00, 303.2, 411.0)">a</text><text xml:space="preserve" font-family="ArialMT,Arial" font-size="14.0" fill="#5A5D5E" transform="matrix(1.00, 0.00, -0.00, -1.00, 311.0, 411.0)">n</text><text xml:space="preserve" font-family="ArialMT,Arial" font-size="14.0" fill="#5A5D5E" transform="matrix(1.00, 0.00, -0.00, -1.00, 318.7, 411.0)"> </text><text xml:space="preserve" font-family="ArialMT,Arial" font-size="14.0" fill="#5A5D5E" transform="matrix(1.00, 0.00, -0.00, -1.00, 322.6, 411.0)">p</text><text xml:space="preserve" font-family="ArialMT,Arial" font-size="14.0" fill="#5A5D5E" transform="matrix(1.00, 0.00, -0.00, -1.00, 330.4, 411.0)">l</text><text xml:space="preserve" font-family="ArialMT,Arial" font-size="14.0" fill="#5A5D5E" transform="matrix(1.00, 0.00, -0.00, -1.00, 333.5, 411.0)">a</text><text xml:space="preserve" font-family="ArialMT,Arial" font-size="14.0" fill="#5A5D5E" transform="matrix(1.00, 0.00, -0.00, -1.00, 341.3, 411.0)">y</text><text xml:space="preserve" font-family="ArialMT,Arial" font-size="14.0" fill="#5A5D5E" transform="matrix(1.00, 0.00, -0.00, -1.00, 348.3, 411.0)"> </text><text xml:space="preserve" font-family="ArialMT,Arial" font-size="14.0" fill="#5A5D5E" transform="matrix(1.00, 0.00, -0.00, -1.00, 352.2, 411.0)">i</text><text xml:space="preserve" font-family="ArialMT,Arial" font-size="14.0" fill="#5A5D5E" transform="matrix(1.00, 0.00, -0.00, -1.00, 355.3, 411.0)">n</text><text xml:space="preserve" font-family="ArialMT,Arial" font-size="14.0" fill="#5A5D5E" transform="matrix(1.00, 0.00, -0.00, -1.00, 363.1, 411.0)"> </text><text xml:space="preserve" font-family="ArialMT,Arial" font-size="14.0" fill="#5A5D5E" transform="matrix(1.00, 0.00, -0.00, -1.00, 367.0, 411.0)">t</text><text xml:space="preserve" font-family="ArialMT,Arial" font-size="14.0" fill="#5A5D5E" transform="matrix(1.00, 0.00, -0.00, -1.00, 370.9, 411.0)">h</text><text xml:space="preserve" font-family="ArialMT,Arial" font-size="14.0" fill="#5A5D5E" transform="matrix(1.00, 0.00, -0.00, -1.00, 378.7, 411.0)">a</text><text xml:space="preserve" font-family="ArialMT,Arial" font-size="14.0" fill="#5A5D5E" transform="matrix(1.00, 0.00, -0.00, -1.00, 386.5, 411.0)">t</text><text xml:space="preserve" font-family="ArialMT,Arial" font-size="14.0" fill="#5A5D5E" transform="matrix(1.00, 0.00, -0.00, -1.00, 390.4, 411.0)"> </text><text xml:space="preserve" font-family="ArialMT,Arial" font-size="14.0" fill="#5A5D5E" transform="matrix(1.00, 0.00, -0.00, -1.00, 394.2, 411.0)">d</text><text xml:space="preserve" font-family="ArialMT,Arial" font-size="14.0" fill="#5A5D5E" transform="matrix(1.00, 0.00, -0.00, -1.00, 402.0, 411.0)">o</text><text xml:space="preserve" font-family="ArialMT,Arial" font-size="14.0" fill="#5A5D5E" transform="matrix(1.00, 0.00, -0.00, -1.00, 409.8, 411.0)">e</text><text xml:space="preserve" font-family="ArialMT,Arial" font-size="14.0" fill="#5A5D5E" transform="matrix(1.00, 0.00, -0.00, -1.00, 417.6, 411.0)">s</text><text xml:space="preserve" font-family="ArialMT,Arial" font-size="14.0" fill="#5A5D5E" transform="matrix(1.00, 0.00, -0.00, -1.00, 424.6, 411.0)"> </text><text xml:space="preserve" font-family="ArialMT,Arial" font-size="14.0" fill="#5A5D5E" transform="matrix(1.00, 0.00, -0.00, -1.00, 428.5, 411.0)">n</text><text xml:space="preserve" font-family="ArialMT,Arial" font-size="14.0" fill="#5A5D5E" transform="matrix(1.00, 0.00, -0.00, -1.00, 436.3, 411.0)">o</text><text xml:space="preserve" font-family="ArialMT,Arial" font-size="14.0" fill="#5A5D5E" transform="matrix(1.00, 0.00, -0.00, -1.00, 444.1, 411.0)">t</text><text xml:space="preserve" font-family="ArialMT,Arial" font-size="14.0" fill="#5A5D5E" transform="matrix(1.00, 0.00, -0.00, -1.00, 448.0, 411.0)"> </text><text xml:space="preserve" font-family="ArialMT,Arial" font-size="14.0" fill="#5A5D5E" transform="matrix(1.00, 0.00, -0.00, -1.00, 451.8, 411.0)">i</text><text xml:space="preserve" font-family="ArialMT,Arial" font-size="14.0" fill="#5A5D5E" transform="matrix(1.00, 0.00, -0.00, -1.00, 455.0, 411.0)">n</text><text xml:space="preserve" font-family="ArialMT,Arial" font-size="14.0" fill="#5A5D5E" transform="matrix(1.00, 0.00, -0.00, -1.00, 462.7, 411.0)">c</text><text xml:space="preserve" font-family="ArialMT,Arial" font-size="14.0" fill="#5A5D5E" transform="matrix(1.00, 0.00, -0.00, -1.00, 469.7, 411.0)">u</text><text xml:space="preserve" font-family="ArialMT,Arial" font-size="14.0" fill="#5A5D5E" transform="matrix(1.00, 0.00, -0.00, -1.00, 477.5, 411.0)">r</text><text xml:space="preserve" font-family="ArialMT,Arial" font-size="14.0" fill="#5A5D5E" transform="matrix(1.00, 0.00, -0.00, -1.00, 482.2, 411.0)"> </text><text xml:space="preserve" font-family="ArialMT,Arial" font-size="14.0" fill="#5A5D5E" transform="matrix(1.00, 0.00, -0.00, -1.00, 486.1, 411.0)">c</text><text xml:space="preserve" font-family="ArialMT,Arial" font-size="14.0" fill="#5A5D5E" transform="matrix(1.00, 0.00, -0.00, -1.00, 493.1, 411.0)">o</text><text xml:space="preserve" font-family="ArialMT,Arial" font-size="14.0" fill="#5A5D5E" transform="matrix(1.00, 0.00, -0.00, -1.00, 500.9, 411.0)">s</text><text xml:space="preserve" font-family="ArialMT,Arial" font-size="14.0" fill="#5A5D5E" transform="matrix(1.00, 0.00, -0.00, -1.00, 507.9, 411.0)">t</text><text xml:space="preserve" font-family="ArialMT,Arial" font-size="14.0" fill="#5A5D5E" transform="matrix(1.00, 0.00, -0.00, -1.00, 511.8, 411.0)"> </text><text xml:space="preserve" font-family="ArialMT,Arial" font-size="14.0" fill="#5A5D5E" transform="matrix(1.00, 0.00, -0.00, -1.00, 515.6, 411.0)">a</text><text xml:space="preserve" font-family="ArialMT,Arial" font-size="14.0" fill="#5A5D5E" transform="matrix(1.00, 0.00, -0.00, -1.00, 523.4, 411.0)">n</text><text xml:space="preserve" font-family="ArialMT,Arial" font-size="14.0" fill="#5A5D5E" transform="matrix(1.00, 0.00, -0.00, -1.00, 531.2, 411.0)">d</text><text xml:space="preserve" font-family="ArialMT,Arial" font-size="14.0" fill="#5A5D5E" transform="matrix(1.00, 0.00, -0.00, -1.00, 539.0, 411.0)"> </text><text xml:space="preserve" font-family="ArialMT,Arial" font-size="14.0" fill="#5A5D5E" transform="matrix(1.00, 0.00, -0.00, -1.00, 542.9, 411.0)">w</text><text xml:space="preserve" font-family="ArialMT,Arial" font-size="14.0" fill="#5A5D5E" transform="matrix(1.00, 0.00, -0.00, -1.00, 553.0, 411.0)">i</text><text xml:space="preserve" font-family="ArialMT,Arial" font-size="14.0" fill="#5A5D5E" transform="matrix(1.00, 0.00, -0.00, -1.00, 556.1, 411.0)">l</text><text xml:space="preserve" font-family="ArialMT,Arial" font-size="14.0" fill="#5A5D5E" transform="matrix(1.00, 0.00, -0.00, -1.00, 559.2, 411.0)">l</text><text xml:space="preserve" font-family="ArialMT,Arial" font-size="14.0" fill="#5A5D5E" transform="matrix(1.00, 0.00, -0.00, -1.00, 562.4, 411.0)"> </text><text xml:space="preserve" font-family="ArialMT,Arial" font-size="14.0" fill="#5A5D5E" transform="matrix(1.00, 0.00, -0.00, -1.00, 566.2, 411.0)">n</text><text xml:space="preserve" font-family="ArialMT,Arial" font-size="14.0" fill="#5A5D5E" transform="matrix(1.00, 0.00, -0.00, -1.00, 574.0, 411.0)">o</text><text xml:space="preserve" font-family="ArialMT,Arial" font-size="14.0" fill="#5A5D5E" transform="matrix(1.00, 0.00, -0.00, -1.00, 581.8, 411.0)">t</text><text xml:space="preserve" font-family="ArialMT,Arial" font-size="14.0" fill="#5A5D5E" transform="matrix(1.00, 0.00, -0.00, -1.00, 585.7, 411.0)"> </text><text xml:space="preserve" font-family="ArialMT,Arial" font-size="14.0" fill="#5A5D5E" transform="matrix(1.00, 0.00, -0.00, -1.00, 589.6, 411.0)">b</text><text xml:space="preserve" font-family="ArialMT,Arial" font-size="14.0" fill="#5A5D5E" transform="matrix(1.00, 0.00, -0.00, -1.00, 597.4, 411.0)">r</text><text xml:space="preserve" font-family="ArialMT,Arial" font-size="14.0" fill="#5A5D5E" transform="matrix(1.00, 0.00, -0.00, -1.00, 602.0, 411.0)">e</text><text xml:space="preserve" font-family="ArialMT,Arial" font-size="14.0" fill="#5A5D5E" transform="matrix(1.00, 0.00, -0.00, -1.00, 609.8, 411.0)">a</text><text xml:space="preserve" font-family="ArialMT,Arial" font-size="14.0" fill="#5A5D5E" transform="matrix(1.00, 0.00, -0.00, -1.00, 617.6, 411.0)">k</text><text xml:space="preserve" font-family="ArialMT,Arial" font-size="14.0" fill="#5A5D5E" transform="matrix(1.00, 0.00, -0.00, -1.00, 624.6, 411.0)"> </text><text xml:space="preserve" font-family="ArialMT,Arial" font-size="14.0" fill="#5A5D5E" transform="matrix(1.00, 0.00, -0.00, -1.00, 628.5, 411.0)">t</text><text xml:space="preserve" font-family="ArialMT,Arial" font-size="14.0" fill="#5A5D5E" transform="matrix(1.00, 0.00, -0.00, -1.00, 632.4, 411.0)">h</text><text xml:space="preserve" font-family="ArialMT,Arial" font-size="14.0" fill="#5A5D5E" transform="matrix(1.00, 0.00, -0.00, -1.00, 640.2, 411.0)">e</text><text xml:space="preserve" font-family="ArialMT,Arial" font-size="14.0" fill="#5A5D5E" transform="matrix(1.00, 0.00, -0.00, -1.00, 648.0, 411.0)">i</text><text xml:space="preserve" font-family="ArialMT,Arial" font-size="14.0" fill="#5A5D5E" transform="matrix(1.00, 0.00, -0.00, -1.00, 651.1, 411.0)">r</text><text xml:space="preserve" font-family="ArialMT,Arial" font-size="14.0" fill="#5A5D5E" transform="matrix(1.00, 0.00, -0.00, -1.00, 655.7, 411.0)"> </text><text xml:space="preserve" font-family="ArialMT,Arial" font-size="14.0" fill="#5A5D5E" transform="matrix(1.00, 0.00, -0.00, -1.00, 659.6, 411.0)">p</text><text xml:space="preserve" font-family="ArialMT,Arial" font-size="14.0" fill="#5A5D5E" transform="matrix(1.00, 0.00, -0.00, -1.00, 667.4, 411.0)">r</text><text xml:space="preserve" font-family="ArialMT,Arial" font-size="14.0" fill="#5A5D5E" transform="matrix(1.00, 0.00, -0.00, -1.00, 672.1, 411.0)">o</text><text xml:space="preserve" font-family="ArialMT,Arial" font-size="14.0" fill="#5A5D5E" transform="matrix(1.00, 0.00, -0.00, -1.00, 679.9, 411.0)">d</text><text xml:space="preserve" font-family="ArialMT,Arial" font-size="14.0" fill="#5A5D5E" transform="matrix(1.00, 0.00, -0.00, -1.00, 687.7, 411.0)">u</text><text xml:space="preserve" font-family="ArialMT,Arial" font-size="14.0" fill="#5A5D5E" transform="matrix(1.00, 0.00, -0.00, -1.00, 695.5, 411.0)">c</text><text xml:space="preserve" font-family="ArialMT,Arial" font-size="14.0" fill="#5A5D5E" transform="matrix(1.00, 0.00, -0.00, -1.00, 702.5, 411.0)">t</text><text xml:space="preserve" font-family="ArialMT,Arial" font-size="14.0" fill="#5A5D5E" transform="matrix(1.00, 0.00, -0.00, -1.00, 706.3, 411.0)">i</text><text xml:space="preserve" font-family="ArialMT,Arial" font-size="14.0" fill="#5A5D5E" transform="matrix(1.00, 0.00, -0.00, -1.00, 709.5, 411.0)">o</text><text xml:space="preserve" font-family="ArialMT,Arial" font-size="14.0" fill="#5A5D5E" transform="matrix(1.00, 0.00, -0.00, -1.00, 717.2, 411.0)">n</text><text xml:space="preserve" font-family="ArialMT,Arial" font-size="14.0" fill="#5A5D5E" transform="matrix(1.00, 0.00, -0.00, -1.00, 725.0, 411.0)"> </text><text xml:space="preserve" font-family="ArialMT,Arial" font-size="14.0" fill="#5A5D5E" transform="matrix(1.00, 0.00, -0.00, -1.00, 728.9, 411.0)">c</text><text xml:space="preserve" font-family="ArialMT,Arial" font-size="14.0" fill="#5A5D5E" transform="matrix(1.00, 0.00, -0.00, -1.00, 735.9, 411.0)">o</text><text xml:space="preserve" font-family="ArialMT,Arial" font-size="14.0" fill="#5A5D5E" transform="matrix(1.00, 0.00, -0.00, -1.00, 743.7, 411.0)">n</text><text xml:space="preserve" font-family="ArialMT,Arial" font-size="14.0" fill="#5A5D5E" transform="matrix(1.00, 0.00, -0.00, -1.00, 751.5, 411.0)">f</text><text xml:space="preserve" font-family="ArialMT,Arial" font-size="14.0" fill="#5A5D5E" transform="matrix(1.00, 0.00, -0.00, -1.00, 755.4, 411.0)">i</text><text xml:space="preserve" font-family="ArialMT,Arial" font-size="14.0" fill="#5A5D5E" transform="matrix(1.00, 0.00, -0.00, -1.00, 758.5, 411.0)">g</text><text xml:space="preserve" font-family="ArialMT,Arial" font-size="14.0" fill="#5A5D5E" transform="matrix(1.00, 0.00, -0.00, -1.00, 766.3, 411.0)">u</text><text xml:space="preserve" font-family="ArialMT,Arial" font-size="14.0" fill="#5A5D5E" transform="matrix(1.00, 0.00, -0.00, -1.00, 774.1, 411.0)">r</text><text xml:space="preserve" font-family="ArialMT,Arial" font-size="14.0" fill="#5A5D5E" transform="matrix(1.00, 0.00, -0.00, -1.00, 778.7, 411.0)">a</text><text xml:space="preserve" font-family="ArialMT,Arial" font-size="14.0" fill="#5A5D5E" transform="matrix(1.00, 0.00, -0.00, -1.00, 786.5, 411.0)">t</text><text xml:space="preserve" font-family="ArialMT,Arial" font-size="14.0" fill="#5A5D5E" transform="matrix(1.00, 0.00, -0.00, -1.00, 790.4, 411.0)">i</text><text xml:space="preserve" font-family="ArialMT,Arial" font-size="14.0" fill="#5A5D5E" transform="matrix(1.00, 0.00, -0.00, -1.00, 793.5, 411.0)">o</text><text xml:space="preserve" font-family="ArialMT,Arial" font-size="14.0" fill="#5A5D5E" transform="matrix(1.00, 0.00, -0.00, -1.00, 801.3, 411.0)">n</text><text xml:space="preserve" font-family="ArialMT,Arial" font-size="14.0" fill="#5A5D5E" transform="matrix(1.00, 0.00, -0.00, -1.00, 809.1, 411.0)">s</text><text xml:space="preserve" font-family="ArialMT,Arial" font-size="14.0" fill="#5A5D5E" transform="matrix(1.00, 0.00, -0.00, -1.00, 816.1, 411.0)">.</text><image xlink:href="../../E7370EDB-3B65-41F5-A189-3837F4C93C10/assets/3B2D33996513E7D2AE96AE0EB8CD0876.jpeg" width="1602.00" height="822.00" transform="matrix(0.28, 0.00, -0.00, -0.28, 262.0, 329.0)"></image></g></svg>