<?xml version="1.0" encoding="UTF-8" standalone="no"?><svg xmlns="http://www.w3.org/2000/svg" xmlns:xlink="http://www.w3.org/1999/xlink" clip-rule="evenodd" stroke-miterlimit="10" viewBox="0 0 960 540"><desc>SVG generated by Keynote</desc><defs><linearGradient id="gradSh1.19" x1="0.0" y1="0.0" x2="100.0" y2="0.0" gradientUnits="userSpaceOnUse" gradientTransform="matrix(0.00, -2.59, -2.59, 0.00, 694.0, 399.5)"><stop offset="0.00000" stop-color="#5F82CB"></stop><stop offset="0.01320" stop-color="#5E82CB"></stop><stop offset="0.07405" stop-color="#5A7FCB"></stop><stop offset="0.08724" stop-color="#597FCB"></stop><stop offset="1.00000" stop-color="#2F61BA"></stop></linearGradient></defs><g transform="matrix(1.00, 0.00, -0.00, -1.00, 0.0, 540.0)"><path d="M 0.0 540.0 L 960.0 540.0 L 960.0 0.0 L 0.0 0.0 Z M 0.0 540.0 " fill="#FFFFFF"></path><g><clipPath id="clip0x6080020a5280"><path d="M 475.0 541.0 L 949.0 541.0 L 949.0 472.0 L 475.0 472.0 Z M 475.3 540.6 "></path></clipPath><g clip-path="url(#clip0x6080020a5280)"><image xlink:href="../../12E296EB-324A-4E36-A627-C1FD5B354ABA/assets/7B0009C886B1E82F6EBAFFAEAD82C4AE.png" width="2337.00" height="797.00" transform="matrix(0.23, 0.00, -0.00, -0.23, 411.0, 655.0)"></image></g></g><image xlink:href="../../12E296EB-324A-4E36-A627-C1FD5B354ABA/assets/A6E89C778DEB5F4EAED58596AE4BA2F9.png" width="1000.00" height="400.00" transform="matrix(0.09, 0.00, -0.00, -0.09, 27.0, 43.0)"></image><image xlink:href="../../12E296EB-324A-4E36-A627-C1FD5B354ABA/assets/D7046E32D604CD756C973E818C68C492.png" width="1000.00" height="400.00" transform="matrix(0.07, 0.00, -0.00, -0.07, 851.0, 43.0)"></image><text xml:space="preserve" font-family="Arial-BoldMT,Arial" font-weight="bold" font-size="24.0" fill="#5A5D5E" transform="matrix(1.00, 0.00, -0.00, -1.00, 53.4, 491.3)">D</text><text xml:space="preserve" font-family="Arial-BoldMT,Arial" font-weight="bold" font-size="24.0" fill="#5A5D5E" transform="matrix(1.00, 0.00, -0.00, -1.00, 70.7, 491.3)">o</text><text xml:space="preserve" font-family="Arial-BoldMT,Arial" font-weight="bold" font-size="24.0" fill="#5A5D5E" transform="matrix(1.00, 0.00, -0.00, -1.00, 85.4, 491.3)">c</text><text xml:space="preserve" font-family="Arial-BoldMT,Arial" font-weight="bold" font-size="24.0" fill="#5A5D5E" transform="matrix(1.00, 0.00, -0.00, -1.00, 98.7, 491.3)">u</text><text xml:space="preserve" font-family="Arial-BoldMT,Arial" font-weight="bold" font-size="24.0" fill="#5A5D5E" transform="matrix(1.00, 0.00, -0.00, -1.00, 113.4, 491.3)">m</text><text xml:space="preserve" font-family="Arial-BoldMT,Arial" font-weight="bold" font-size="24.0" fill="#5A5D5E" transform="matrix(1.00, 0.00, -0.00, -1.00, 134.7, 491.3)">e</text><text xml:space="preserve" font-family="Arial-BoldMT,Arial" font-weight="bold" font-size="24.0" fill="#5A5D5E" transform="matrix(1.00, 0.00, -0.00, -1.00, 148.1, 491.3)">n</text><text xml:space="preserve" font-family="Arial-BoldMT,Arial" font-weight="bold" font-size="24.0" fill="#5A5D5E" transform="matrix(1.00, 0.00, -0.00, -1.00, 162.7, 491.3)">t</text><text xml:space="preserve" font-family="Arial-BoldMT,Arial" font-weight="bold" font-size="24.0" fill="#5A5D5E" transform="matrix(1.00, 0.00, -0.00, -1.00, 170.7, 491.3)">a</text><text xml:space="preserve" font-family="Arial-BoldMT,Arial" font-weight="bold" font-size="24.0" fill="#5A5D5E" transform="matrix(1.00, 0.00, -0.00, -1.00, 184.1, 491.3)">t</text><text xml:space="preserve" font-family="Arial-BoldMT,Arial" font-weight="bold" font-size="24.0" fill="#5A5D5E" transform="matrix(1.00, 0.00, -0.00, -1.00, 192.1, 491.3)">i</text><text xml:space="preserve" font-family="Arial-BoldMT,Arial" font-weight="bold" font-size="24.0" fill="#5A5D5E" transform="matrix(1.00, 0.00, -0.00, -1.00, 198.7, 491.3)">o</text><text xml:space="preserve" font-family="Arial-BoldMT,Arial" font-weight="bold" font-size="24.0" fill="#5A5D5E" transform="matrix(1.00, 0.00, -0.00, -1.00, 213.4, 491.3)">n</text><text xml:space="preserve" font-family="ArialMT,Arial" font-size="21.0" fill="#5A5D5E" transform="matrix(1.00, 0.00, -0.00, -1.00, 53.4, 404.7)">•</text><text xml:space="preserve" font-family="ArialMT,Arial" font-size="21.0" fill="#5A5D5E" transform="matrix(1.00, 0.00, -0.00, -1.00, 64.4, 404.7)">D</text><text xml:space="preserve" font-family="ArialMT,Arial" font-size="21.0" fill="#5A5D5E" transform="matrix(1.00, 0.00, -0.00, -1.00, 79.6, 404.7)">e</text><text xml:space="preserve" font-family="ArialMT,Arial" font-size="21.0" fill="#5A5D5E" transform="matrix(1.00, 0.00, -0.00, -1.00, 91.3, 404.7)">m</text><text xml:space="preserve" font-family="ArialMT,Arial" font-size="21.0" fill="#5A5D5E" transform="matrix(1.00, 0.00, -0.00, -1.00, 108.7, 404.7)">o</text><text xml:space="preserve" font-family="ArialMT,Arial" font-size="21.0" fill="#5A5D5E" transform="matrix(1.00, 0.00, -0.00, -1.00, 120.4, 404.7)">n</text><text xml:space="preserve" font-family="ArialMT,Arial" font-size="21.0" fill="#5A5D5E" transform="matrix(1.00, 0.00, -0.00, -1.00, 132.1, 404.7)">s</text><text xml:space="preserve" font-family="ArialMT,Arial" font-size="21.0" fill="#5A5D5E" transform="matrix(1.00, 0.00, -0.00, -1.00, 142.6, 404.7)">t</text><text xml:space="preserve" font-family="ArialMT,Arial" font-size="21.0" fill="#5A5D5E" transform="matrix(1.00, 0.00, -0.00, -1.00, 148.4, 404.7)">r</text><text xml:space="preserve" font-family="ArialMT,Arial" font-size="21.0" fill="#5A5D5E" transform="matrix(1.00, 0.00, -0.00, -1.00, 155.4, 404.7)">a</text><text xml:space="preserve" font-family="ArialMT,Arial" font-size="21.0" fill="#5A5D5E" transform="matrix(1.00, 0.00, -0.00, -1.00, 167.1, 404.7)">t</text><text xml:space="preserve" font-family="ArialMT,Arial" font-size="21.0" fill="#5A5D5E" transform="matrix(1.00, 0.00, -0.00, -1.00, 173.0, 404.7)">e</text><text xml:space="preserve" font-family="ArialMT,Arial" font-size="21.0" fill="#5A5D5E" transform="matrix(1.00, 0.00, -0.00, -1.00, 184.6, 404.7)"> </text><text xml:space="preserve" font-family="ArialMT,Arial" font-size="21.0" fill="#5A5D5E" transform="matrix(1.00, 0.00, -0.00, -1.00, 190.5, 404.7)">t</text><text xml:space="preserve" font-family="ArialMT,Arial" font-size="21.0" fill="#5A5D5E" transform="matrix(1.00, 0.00, -0.00, -1.00, 196.3, 404.7)">h</text><text xml:space="preserve" font-family="ArialMT,Arial" font-size="21.0" fill="#5A5D5E" transform="matrix(1.00, 0.00, -0.00, -1.00, 208.0, 404.7)">e</text><text xml:space="preserve" font-family="ArialMT,Arial" font-size="21.0" fill="#5A5D5E" transform="matrix(1.00, 0.00, -0.00, -1.00, 219.7, 404.7)"> </text><text xml:space="preserve" font-family="ArialMT,Arial" font-size="21.0" fill="#5A5D5E" transform="matrix(1.00, 0.00, -0.00, -1.00, 225.5, 404.7)">i</text><text xml:space="preserve" font-family="ArialMT,Arial" font-size="21.0" fill="#5A5D5E" transform="matrix(1.00, 0.00, -0.00, -1.00, 230.2, 404.7)">n</text><text xml:space="preserve" font-family="ArialMT,Arial" font-size="21.0" fill="#5A5D5E" transform="matrix(1.00, 0.00, -0.00, -1.00, 241.8, 404.7)">t</text><text xml:space="preserve" font-family="ArialMT,Arial" font-size="21.0" fill="#5A5D5E" transform="matrix(1.00, 0.00, -0.00, -1.00, 247.7, 404.7)">e</text><text xml:space="preserve" font-family="ArialMT,Arial" font-size="21.0" fill="#5A5D5E" transform="matrix(1.00, 0.00, -0.00, -1.00, 259.4, 404.7)">n</text><text xml:space="preserve" font-family="ArialMT,Arial" font-size="21.0" fill="#5A5D5E" transform="matrix(1.00, 0.00, -0.00, -1.00, 271.0, 404.7)">d</text><text xml:space="preserve" font-family="ArialMT,Arial" font-size="21.0" fill="#5A5D5E" transform="matrix(1.00, 0.00, -0.00, -1.00, 282.7, 404.7)">e</text><text xml:space="preserve" font-family="ArialMT,Arial" font-size="21.0" fill="#5A5D5E" transform="matrix(1.00, 0.00, -0.00, -1.00, 294.4, 404.7)">d</text><text xml:space="preserve" font-family="ArialMT,Arial" font-size="21.0" fill="#5A5D5E" transform="matrix(1.00, 0.00, -0.00, -1.00, 306.1, 404.7)"> </text><text xml:space="preserve" font-family="ArialMT,Arial" font-size="21.0" fill="#5A5D5E" transform="matrix(1.00, 0.00, -0.00, -1.00, 311.9, 404.7)">u</text><text xml:space="preserve" font-family="ArialMT,Arial" font-size="21.0" fill="#5A5D5E" transform="matrix(1.00, 0.00, -0.00, -1.00, 323.6, 404.7)">s</text><text xml:space="preserve" font-family="ArialMT,Arial" font-size="21.0" fill="#5A5D5E" transform="matrix(1.00, 0.00, -0.00, -1.00, 334.1, 404.7)">e</text><text xml:space="preserve" font-family="ArialMT,Arial" font-size="21.0" fill="#5A5D5E" transform="matrix(1.00, 0.00, -0.00, -1.00, 345.8, 404.7)"> </text><text xml:space="preserve" font-family="ArialMT,Arial" font-size="21.0" fill="#5A5D5E" transform="matrix(1.00, 0.00, -0.00, -1.00, 351.6, 404.7)">o</text><text xml:space="preserve" font-family="ArialMT,Arial" font-size="21.0" fill="#5A5D5E" transform="matrix(1.00, 0.00, -0.00, -1.00, 363.3, 404.7)">f</text><text xml:space="preserve" font-family="ArialMT,Arial" font-size="21.0" fill="#5A5D5E" transform="matrix(1.00, 0.00, -0.00, -1.00, 369.1, 404.7)"> </text><text xml:space="preserve" font-family="ArialMT,Arial" font-size="21.0" fill="#5A5D5E" transform="matrix(1.00, 0.00, -0.00, -1.00, 375.0, 404.7)">t</text><text xml:space="preserve" font-family="ArialMT,Arial" font-size="21.0" fill="#5A5D5E" transform="matrix(1.00, 0.00, -0.00, -1.00, 380.8, 404.7)">h</text><text xml:space="preserve" font-family="ArialMT,Arial" font-size="21.0" fill="#5A5D5E" transform="matrix(1.00, 0.00, -0.00, -1.00, 392.5, 404.7)">e</text><text xml:space="preserve" font-family="ArialMT,Arial" font-size="21.0" fill="#5A5D5E" transform="matrix(1.00, 0.00, -0.00, -1.00, 404.2, 404.7)"> </text><text xml:space="preserve" font-family="ArialMT,Arial" font-size="21.0" fill="#5A5D5E" transform="matrix(1.00, 0.00, -0.00, -1.00, 408.8, 404.7)">A</text><text xml:space="preserve" font-family="ArialMT,Arial" font-size="21.0" fill="#5A5D5E" transform="matrix(1.00, 0.00, -0.00, -1.00, 422.8, 404.7)">P</text><text xml:space="preserve" font-family="ArialMT,Arial" font-size="21.0" fill="#5A5D5E" transform="matrix(1.00, 0.00, -0.00, -1.00, 436.8, 404.7)">I</text><text xml:space="preserve" font-family="ArialMT,Arial" font-size="21.0" fill="#5A5D5E" transform="matrix(1.00, 0.00, -0.00, -1.00, 442.7, 404.7)"> </text><text xml:space="preserve" font-family="ArialMT,Arial" font-size="21.0" fill="#5A5D5E" transform="matrix(1.00, 0.00, -0.00, -1.00, 53.4, 373.0)">•</text><text xml:space="preserve" font-family="ArialMT,Arial" font-size="21.0" fill="#5A5D5E" transform="matrix(1.00, 0.00, -0.00, -1.00, 64.4, 373.0)">D</text><text xml:space="preserve" font-family="ArialMT,Arial" font-size="21.0" fill="#5A5D5E" transform="matrix(1.00, 0.00, -0.00, -1.00, 79.6, 373.0)">e</text><text xml:space="preserve" font-family="ArialMT,Arial" font-size="21.0" fill="#5A5D5E" transform="matrix(1.00, 0.00, -0.00, -1.00, 91.3, 373.0)">m</text><text xml:space="preserve" font-family="ArialMT,Arial" font-size="21.0" fill="#5A5D5E" transform="matrix(1.00, 0.00, -0.00, -1.00, 108.7, 373.0)">o</text><text xml:space="preserve" font-family="ArialMT,Arial" font-size="21.0" fill="#5A5D5E" transform="matrix(1.00, 0.00, -0.00, -1.00, 120.4, 373.0)">n</text><text xml:space="preserve" font-family="ArialMT,Arial" font-size="21.0" fill="#5A5D5E" transform="matrix(1.00, 0.00, -0.00, -1.00, 132.1, 373.0)">s</text><text xml:space="preserve" font-family="ArialMT,Arial" font-size="21.0" fill="#5A5D5E" transform="matrix(1.00, 0.00, -0.00, -1.00, 142.6, 373.0)">t</text><text xml:space="preserve" font-family="ArialMT,Arial" font-size="21.0" fill="#5A5D5E" transform="matrix(1.00, 0.00, -0.00, -1.00, 148.4, 373.0)">r</text><text xml:space="preserve" font-family="ArialMT,Arial" font-size="21.0" fill="#5A5D5E" transform="matrix(1.00, 0.00, -0.00, -1.00, 155.4, 373.0)">a</text><text xml:space="preserve" font-family="ArialMT,Arial" font-size="21.0" fill="#5A5D5E" transform="matrix(1.00, 0.00, -0.00, -1.00, 167.1, 373.0)">t</text><text xml:space="preserve" font-family="ArialMT,Arial" font-size="21.0" fill="#5A5D5E" transform="matrix(1.00, 0.00, -0.00, -1.00, 173.0, 373.0)">e</text><text xml:space="preserve" font-family="ArialMT,Arial" font-size="21.0" fill="#5A5D5E" transform="matrix(1.00, 0.00, -0.00, -1.00, 184.6, 373.0)"> </text><text xml:space="preserve" font-family="ArialMT,Arial" font-size="21.0" fill="#5A5D5E" transform="matrix(1.00, 0.00, -0.00, -1.00, 190.5, 373.0)">W</text><text xml:space="preserve" font-family="ArialMT,Arial" font-size="21.0" fill="#5A5D5E" transform="matrix(1.00, 0.00, -0.00, -1.00, 209.9, 373.0)">o</text><text xml:space="preserve" font-family="ArialMT,Arial" font-size="21.0" fill="#5A5D5E" transform="matrix(1.00, 0.00, -0.00, -1.00, 221.6, 373.0)">r</text><text xml:space="preserve" font-family="ArialMT,Arial" font-size="21.0" fill="#5A5D5E" transform="matrix(1.00, 0.00, -0.00, -1.00, 228.6, 373.0)">k</text><text xml:space="preserve" font-family="ArialMT,Arial" font-size="21.0" fill="#5A5D5E" transform="matrix(1.00, 0.00, -0.00, -1.00, 239.1, 373.0)">f</text><text xml:space="preserve" font-family="ArialMT,Arial" font-size="21.0" fill="#5A5D5E" transform="matrix(1.00, 0.00, -0.00, -1.00, 244.9, 373.0)">l</text><text xml:space="preserve" font-family="ArialMT,Arial" font-size="21.0" fill="#5A5D5E" transform="matrix(1.00, 0.00, -0.00, -1.00, 249.6, 373.0)">o</text><text xml:space="preserve" font-family="ArialMT,Arial" font-size="21.0" fill="#5A5D5E" transform="matrix(1.00, 0.00, -0.00, -1.00, 261.3, 373.0)">w</text><text xml:space="preserve" font-family="ArialMT,Arial" font-size="21.0" fill="#5A5D5E" transform="matrix(1.00, 0.00, -0.00, -1.00, 276.4, 373.0)">s</text><text xml:space="preserve" font-family="ArialMT,Arial" font-size="21.0" fill="#5A5D5E" transform="matrix(1.00, 0.00, -0.00, -1.00, 286.9, 373.0)"> </text><text xml:space="preserve" font-family="ArialMT,Arial" font-size="21.0" fill="#5A5D5E" transform="matrix(1.00, 0.00, -0.00, -1.00, 53.4, 341.3)">•</text><text xml:space="preserve" font-family="ArialMT,Arial" font-size="21.0" fill="#5A5D5E" transform="matrix(1.00, 0.00, -0.00, -1.00, 64.4, 341.3)">C</text><text xml:space="preserve" font-family="ArialMT,Arial" font-size="21.0" fill="#5A5D5E" transform="matrix(1.00, 0.00, -0.00, -1.00, 79.6, 341.3)">o</text><text xml:space="preserve" font-family="ArialMT,Arial" font-size="21.0" fill="#5A5D5E" transform="matrix(1.00, 0.00, -0.00, -1.00, 91.3, 341.3)">m</text><text xml:space="preserve" font-family="ArialMT,Arial" font-size="21.0" fill="#5A5D5E" transform="matrix(1.00, 0.00, -0.00, -1.00, 108.7, 341.3)">p</text><text xml:space="preserve" font-family="ArialMT,Arial" font-size="21.0" fill="#5A5D5E" transform="matrix(1.00, 0.00, -0.00, -1.00, 120.4, 341.3)">l</text><text xml:space="preserve" font-family="ArialMT,Arial" font-size="21.0" fill="#5A5D5E" transform="matrix(1.00, 0.00, -0.00, -1.00, 125.1, 341.3)">e</text><text xml:space="preserve" font-family="ArialMT,Arial" font-size="21.0" fill="#5A5D5E" transform="matrix(1.00, 0.00, -0.00, -1.00, 136.8, 341.3)">t</text><text xml:space="preserve" font-family="ArialMT,Arial" font-size="21.0" fill="#5A5D5E" transform="matrix(1.00, 0.00, -0.00, -1.00, 142.6, 341.3)">e</text><text xml:space="preserve" font-family="ArialMT,Arial" font-size="21.0" fill="#5A5D5E" transform="matrix(1.00, 0.00, -0.00, -1.00, 154.3, 341.3)"> </text><text xml:space="preserve" font-family="ArialMT,Arial" font-size="21.0" fill="#5A5D5E" transform="matrix(1.00, 0.00, -0.00, -1.00, 160.1, 341.3)">r</text><text xml:space="preserve" font-family="ArialMT,Arial" font-size="21.0" fill="#5A5D5E" transform="matrix(1.00, 0.00, -0.00, -1.00, 167.1, 341.3)">e</text><text xml:space="preserve" font-family="ArialMT,Arial" font-size="21.0" fill="#5A5D5E" transform="matrix(1.00, 0.00, -0.00, -1.00, 178.8, 341.3)">a</text><text xml:space="preserve" font-family="ArialMT,Arial" font-size="21.0" fill="#5A5D5E" transform="matrix(1.00, 0.00, -0.00, -1.00, 190.5, 341.3)">l</text><text xml:space="preserve" font-family="ArialMT,Arial" font-size="21.0" fill="#5A5D5E" transform="matrix(1.00, 0.00, -0.00, -1.00, 195.2, 341.3)"> </text><text xml:space="preserve" font-family="ArialMT,Arial" font-size="21.0" fill="#5A5D5E" transform="matrix(1.00, 0.00, -0.00, -1.00, 201.0, 341.3)">l</text><text xml:space="preserve" font-family="ArialMT,Arial" font-size="21.0" fill="#5A5D5E" transform="matrix(1.00, 0.00, -0.00, -1.00, 205.7, 341.3)">i</text><text xml:space="preserve" font-family="ArialMT,Arial" font-size="21.0" fill="#5A5D5E" transform="matrix(1.00, 0.00, -0.00, -1.00, 210.3, 341.3)">f</text><text xml:space="preserve" font-family="ArialMT,Arial" font-size="21.0" fill="#5A5D5E" transform="matrix(1.00, 0.00, -0.00, -1.00, 216.2, 341.3)">e</text><text xml:space="preserve" font-family="ArialMT,Arial" font-size="21.0" fill="#5A5D5E" transform="matrix(1.00, 0.00, -0.00, -1.00, 227.8, 341.3)"> </text><text xml:space="preserve" font-family="ArialMT,Arial" font-size="21.0" fill="#5A5D5E" transform="matrix(1.00, 0.00, -0.00, -1.00, 233.7, 341.3)">e</text><text xml:space="preserve" font-family="ArialMT,Arial" font-size="21.0" fill="#5A5D5E" transform="matrix(1.00, 0.00, -0.00, -1.00, 245.4, 341.3)">x</text><text xml:space="preserve" font-family="ArialMT,Arial" font-size="21.0" fill="#5A5D5E" transform="matrix(1.00, 0.00, -0.00, -1.00, 255.9, 341.3)">a</text><text xml:space="preserve" font-family="ArialMT,Arial" font-size="21.0" fill="#5A5D5E" transform="matrix(1.00, 0.00, -0.00, -1.00, 267.5, 341.3)">m</text><text xml:space="preserve" font-family="ArialMT,Arial" font-size="21.0" fill="#5A5D5E" transform="matrix(1.00, 0.00, -0.00, -1.00, 285.0, 341.3)">p</text><text xml:space="preserve" font-family="ArialMT,Arial" font-size="21.0" fill="#5A5D5E" transform="matrix(1.00, 0.00, -0.00, -1.00, 296.7, 341.3)">l</text><text xml:space="preserve" font-family="ArialMT,Arial" font-size="21.0" fill="#5A5D5E" transform="matrix(1.00, 0.00, -0.00, -1.00, 301.4, 341.3)">e</text><text xml:space="preserve" font-family="ArialMT,Arial" font-size="21.0" fill="#5A5D5E" transform="matrix(1.00, 0.00, -0.00, -1.00, 313.1, 341.3)">s</text><text xml:space="preserve" font-family="ArialMT,Arial" font-size="21.0" fill="#5A5D5E" transform="matrix(1.00, 0.00, -0.00, -1.00, 323.6, 341.3)"> </text><text xml:space="preserve" font-family="ArialMT,Arial" font-size="21.0" fill="#5A5D5E" transform="matrix(1.00, 0.00, -0.00, -1.00, 53.4, 309.7)">•</text><text xml:space="preserve" font-family="ArialMT,Arial" font-size="21.0" fill="#5A5D5E" transform="matrix(1.00, 0.00, -0.00, -1.00, 64.4, 309.7)">s</text><text xml:space="preserve" font-family="ArialMT,Arial" font-size="21.0" fill="#5A5D5E" transform="matrix(1.00, 0.00, -0.00, -1.00, 74.9, 309.7)">w</text><text xml:space="preserve" font-family="ArialMT,Arial" font-size="21.0" fill="#5A5D5E" transform="matrix(1.00, 0.00, -0.00, -1.00, 90.1, 309.7)">a</text><text xml:space="preserve" font-family="ArialMT,Arial" font-size="21.0" fill="#5A5D5E" transform="matrix(1.00, 0.00, -0.00, -1.00, 101.8, 309.7)">g</text><text xml:space="preserve" font-family="ArialMT,Arial" font-size="21.0" fill="#5A5D5E" transform="matrix(1.00, 0.00, -0.00, -1.00, 113.4, 309.7)">g</text><text xml:space="preserve" font-family="ArialMT,Arial" font-size="21.0" fill="#5A5D5E" transform="matrix(1.00, 0.00, -0.00, -1.00, 125.1, 309.7)">e</text><text xml:space="preserve" font-family="ArialMT,Arial" font-size="21.0" fill="#5A5D5E" transform="matrix(1.00, 0.00, -0.00, -1.00, 136.8, 309.7)">r</text><text xml:space="preserve" font-family="ArialMT,Arial" font-size="21.0" fill="#5A5D5E" transform="matrix(1.00, 0.00, -0.00, -1.00, 142.6, 309.7)">.</text><text xml:space="preserve" font-family="ArialMT,Arial" font-size="21.0" fill="#5A5D5E" transform="matrix(1.00, 0.00, -0.00, -1.00, 148.5, 309.7)">i</text><text xml:space="preserve" font-family="ArialMT,Arial" font-size="21.0" fill="#5A5D5E" transform="matrix(1.00, 0.00, -0.00, -1.00, 153.1, 309.7)">o</text><g><clipPath id="clip0x600002aad140"><path d="M 565.5 398.5 L 822.5 398.5 L 822.5 141.5 L 565.5 141.5 Z M 565.0 398.5 "></path></clipPath><g clip-path="url(#clip0x600002aad140)"><path d="M 565.5 398.5 L 822.5 398.5 L 822.5 141.5 L 565.5 141.5 Z M 565.0 398.5 " fill="url(#gradSh1.19)"></path></g></g><path d="M 0.5 -0.0 L 257.5 -0.0 L 257.5 257.0 L 0.5 257.0 Z M 0.0 0.0 " fill="none" stroke="#4471C4" stroke-width="0.50" transform="matrix(1.00, 0.00, 0.00, -1.00, 565.0, 398.5)"></path><path d="M 0.0 0.0 L 237.0 0.0 " fill="none" stroke="#ED7D31" stroke-width="20.00" transform="matrix(1.00, 0.00, 0.00, -1.00, 575.0, 376.0)"></path><path d="M 0.0 0.0 L 237.0 0.0 " fill="none" stroke="#ED7D31" stroke-width="10.00" transform="matrix(1.00, 0.00, 0.00, -1.00, 575.0, 343.0)"></path><path d="M 0.0 0.1 L 237.0 0.1 " fill="none" stroke="#ED7D31" stroke-width="10.00" transform="matrix(1.00, 0.00, 0.00, -1.00, 575.0, 325.1)"></path><path d="M 0.0 0.2 L 237.0 0.2 " fill="none" stroke="#ED7D31" stroke-width="10.00" transform="matrix(1.00, 0.00, 0.00, -1.00, 575.0, 307.2)"></path><path d="M 0.0 0.3 L 237.0 0.3 " fill="none" stroke="#ED7D31" stroke-width="10.00" transform="matrix(1.00, 0.00, 0.00, -1.00, 575.0, 289.3)"></path><path d="M 0.0 0.4 L 237.0 0.4 " fill="none" stroke="#ED7D31" stroke-width="10.00" transform="matrix(1.00, 0.00, 0.00, -1.00, 575.0, 271.4)"></path><path d="M 0.0 0.5 L 237.0 0.5 " fill="none" stroke="#ED7D31" stroke-width="10.00" transform="matrix(1.00, 0.00, 0.00, -1.00, 575.0, 253.5)"></path><path d="M 0.0 -0.4 L 237.0 -0.4 " fill="none" stroke="#ED7D31" stroke-width="10.00" transform="matrix(1.00, 0.00, 0.00, -1.00, 575.0, 235.6)"></path><path d="M 0.0 -0.3 L 237.0 -0.3 " fill="none" stroke="#ED7D31" stroke-width="10.00" transform="matrix(1.00, 0.00, 0.00, -1.00, 575.0, 217.7)"></path><path d="M 0.0 -0.2 L 237.0 -0.2 " fill="none" stroke="#ED7D31" stroke-width="10.00" transform="matrix(1.00, 0.00, 0.00, -1.00, 575.0, 199.8)"></path><path d="M 0.0 -0.1 L 237.0 -0.1 " fill="none" stroke="#ED7D31" stroke-width="10.00" transform="matrix(1.00, 0.00, 0.00, -1.00, 575.0, 181.9)"></path><path d="M 0.0 0.0 L 237.0 0.0 " fill="none" stroke="#ED7D31" stroke-width="10.00" transform="matrix(1.00, 0.00, 0.00, -1.00, 575.0, 164.0)"></path></g></svg>